G04 #@! TF.FileFunction,Soldermask,Top*
%FSLAX46Y46*%
G04 Gerber Fmt 4.6, Leading zero omitted, Abs format (unit mm)*
G04 Created by KiCad (PCBNEW 4.0.2-stable) date 2016-05-09 23:30:04*
%MOMM*%
G01*
G04 APERTURE LIST*
%ADD10C,0.020000*%
%ADD11R,0.200000X0.899160*%
%ADD12R,0.899160X0.200000*%
%ADD13R,1.552400X0.552400*%
%ADD14R,0.400000X0.600000*%
%ADD15R,0.800000X0.750000*%
%ADD16R,0.600000X0.400000*%
%ADD17R,0.750000X0.800000*%
%ADD18O,2.700000X2.000000*%
%ADD19R,1.524000X0.800000*%
%ADD20R,1.400000X2.200000*%
%ADD21R,2.230000X1.800000*%
%ADD22R,1.800000X2.230000*%
%ADD23R,0.260000X0.787400*%
%ADD24R,0.787400X0.304800*%
%ADD25R,4.300000X1.800000*%
%ADD26C,0.400000*%
%ADD27C,0.600000*%
%ADD28C,0.350000*%
G04 APERTURE END LIST*
D10*
D11*
X64550000Y-174150000D03*
X65000000Y-174150000D03*
X65450000Y-174148600D03*
X65900000Y-174150000D03*
X66350000Y-174150000D03*
D12*
X66950000Y-173550000D03*
X66950000Y-173100000D03*
X66948600Y-172650000D03*
X66950000Y-172200000D03*
X66950000Y-171750000D03*
D11*
X66350000Y-171150000D03*
X65900000Y-171150000D03*
X65450000Y-171151400D03*
X65000000Y-171150000D03*
X64550000Y-171150000D03*
D12*
X63950000Y-171750000D03*
X63950000Y-172200000D03*
X63951400Y-172650000D03*
X63950000Y-173100000D03*
X63950000Y-173550000D03*
D13*
X52800000Y-176675000D03*
X52800000Y-176025000D03*
X52800000Y-175375000D03*
X52800000Y-174725000D03*
X48400000Y-174725000D03*
X48400000Y-175375000D03*
X48400000Y-176025000D03*
X48400000Y-176675000D03*
D14*
X60850000Y-165800000D03*
X61750000Y-165800000D03*
D15*
X56050000Y-164600000D03*
X54550000Y-164600000D03*
D16*
X65300000Y-169150000D03*
X65300000Y-168250000D03*
D15*
X59250000Y-164300000D03*
X60750000Y-164300000D03*
D16*
X61100000Y-167350000D03*
X61100000Y-168250000D03*
X54700000Y-175750000D03*
X54700000Y-176650000D03*
D14*
X51150000Y-173400000D03*
X50250000Y-173400000D03*
D16*
X61200000Y-171450000D03*
X61200000Y-172350000D03*
X67800000Y-167500000D03*
X67800000Y-168400000D03*
D14*
X66850000Y-170050000D03*
X67750000Y-170050000D03*
D17*
X69000000Y-172150000D03*
X69000000Y-173650000D03*
D18*
X39350000Y-166350000D03*
X39350000Y-173900000D03*
D16*
X57700000Y-164650000D03*
X57700000Y-165550000D03*
D19*
X71300000Y-169400000D03*
X71300000Y-170600000D03*
X71300000Y-171800000D03*
D20*
X34450000Y-171150000D03*
X34450000Y-173950000D03*
X34450000Y-176550000D03*
X34450000Y-168550000D03*
X34450000Y-165900000D03*
X34450000Y-163300000D03*
D21*
X48350000Y-165290000D03*
X48350000Y-168210000D03*
D22*
X65590000Y-164650000D03*
X68510000Y-164650000D03*
D10*
G36*
X43088112Y-175369582D02*
X42395206Y-174969532D01*
X42795256Y-174276626D01*
X43488162Y-174676676D01*
X43088112Y-175369582D01*
X43088112Y-175369582D01*
G37*
G36*
X44038112Y-173724134D02*
X43345206Y-173324084D01*
X43745256Y-172631178D01*
X44438162Y-173031228D01*
X44038112Y-173724134D01*
X44038112Y-173724134D01*
G37*
G36*
X41831944Y-173547368D02*
X41139038Y-173147318D01*
X41539088Y-172454412D01*
X42231994Y-172854462D01*
X41831944Y-173547368D01*
X41831944Y-173547368D01*
G37*
G36*
X44338162Y-167468772D02*
X43645256Y-167868822D01*
X43245206Y-167175916D01*
X43938112Y-166775866D01*
X44338162Y-167468772D01*
X44338162Y-167468772D01*
G37*
G36*
X43388162Y-165823324D02*
X42695256Y-166223374D01*
X42295206Y-165530468D01*
X42988112Y-165130418D01*
X43388162Y-165823324D01*
X43388162Y-165823324D01*
G37*
G36*
X42131994Y-167645538D02*
X41439088Y-168045588D01*
X41039038Y-167352682D01*
X41731944Y-166952632D01*
X42131994Y-167645538D01*
X42131994Y-167645538D01*
G37*
D23*
X55049999Y-171827401D03*
X55550001Y-171827401D03*
X56050000Y-171827401D03*
X56549999Y-171827401D03*
X57050000Y-171827401D03*
X57550000Y-171827401D03*
X58050001Y-171827401D03*
X58550000Y-171827401D03*
X59049999Y-171827401D03*
X59550001Y-171827401D03*
D24*
X60027401Y-170850001D03*
X60027401Y-169349999D03*
D23*
X59550001Y-168372599D03*
X59049999Y-168372599D03*
X58550000Y-168372599D03*
X58050001Y-168372599D03*
X57550000Y-168372599D03*
X57050000Y-168372599D03*
X56549999Y-168372599D03*
X56050000Y-168372599D03*
X55550001Y-168372599D03*
X55049999Y-168372599D03*
D24*
X54572599Y-169349999D03*
X54572599Y-170850001D03*
D25*
X57300000Y-170100000D03*
D26*
X50450000Y-174300000D03*
X34700000Y-165950000D03*
X64900000Y-166900000D03*
X56450000Y-175700000D03*
X59000000Y-164900000D03*
X54100000Y-175900000D03*
X71300000Y-166800000D03*
X61900000Y-168300000D03*
X60100000Y-166100000D03*
X70450000Y-167500000D03*
D27*
X42250000Y-169150000D03*
D26*
X49050000Y-172250000D03*
X71350000Y-175900000D03*
D28*
X63750000Y-164150000D03*
D26*
X47600000Y-165800000D03*
X69150000Y-173300000D03*
X69350000Y-168300000D03*
X57000000Y-167400000D03*
X59200000Y-172600000D03*
X47650000Y-168200000D03*
X66200000Y-176000000D03*
X61900000Y-176300000D03*
X69500000Y-169800000D03*
X63150000Y-171400000D03*
X61100000Y-175150000D03*
X58450000Y-174600000D03*
X56400000Y-174000000D03*
X47600000Y-170950000D03*
X46900000Y-175900000D03*
X34700000Y-171250000D03*
X55500000Y-172900000D03*
X34700000Y-173950000D03*
X53900000Y-167000000D03*
X66150000Y-169900000D03*
X63900000Y-176750000D03*
X40900000Y-164050000D03*
X55600000Y-176200000D03*
X34650000Y-168400000D03*
X63700000Y-168100000D03*
X34700000Y-176550000D03*
X66850000Y-175300000D03*
X58200000Y-166000000D03*
X70700000Y-172900000D03*
X66500000Y-168900000D03*
X68900000Y-170300000D03*
X67000000Y-166200000D03*
X64350000Y-167500000D03*
M02*
