G04 #@! TF.FileFunction,Soldermask,Bot*
%FSLAX46Y46*%
G04 Gerber Fmt 4.6, Leading zero omitted, Abs format (unit mm)*
G04 Created by KiCad (PCBNEW 4.0.2-stable) date 2016-05-08 01:04:35*
%MOMM*%
G01*
G04 APERTURE LIST*
%ADD10C,0.020000*%
%ADD11R,2.800000X1.400000*%
%ADD12O,2.700000X2.000000*%
%ADD13R,1.524000X0.800000*%
%ADD14R,2.830000X1.400000*%
%ADD15R,1.400000X2.200000*%
%ADD16C,0.600000*%
%ADD17C,0.500000*%
%ADD18C,0.350000*%
%ADD19C,0.700000*%
G04 APERTURE END LIST*
D10*
D11*
X47600000Y-173650000D03*
D12*
X39350000Y-166350000D03*
X39350000Y-173900000D03*
D10*
G36*
X52900000Y-169700000D02*
X49900000Y-169700000D01*
X49900000Y-167500000D01*
X52900000Y-167500000D01*
X52900000Y-169700000D01*
X52900000Y-169700000D01*
G37*
G36*
X52900000Y-167000000D02*
X49900000Y-167000000D01*
X49900000Y-164800000D01*
X52900000Y-164800000D01*
X52900000Y-167000000D01*
X52900000Y-167000000D01*
G37*
G36*
X52900000Y-164300000D02*
X49900000Y-164300000D01*
X49900000Y-162100000D01*
X52900000Y-162100000D01*
X52900000Y-164300000D01*
X52900000Y-164300000D01*
G37*
G36*
X49900000Y-170200000D02*
X52900000Y-170200000D01*
X52900000Y-172400000D01*
X49900000Y-172400000D01*
X49900000Y-170200000D01*
X49900000Y-170200000D01*
G37*
G36*
X52900000Y-175100000D02*
X49900000Y-175100000D01*
X49900000Y-172900000D01*
X52900000Y-172900000D01*
X52900000Y-175100000D01*
X52900000Y-175100000D01*
G37*
G36*
X52900000Y-177800000D02*
X49900000Y-177800000D01*
X49900000Y-175600000D01*
X52900000Y-175600000D01*
X52900000Y-177800000D01*
X52900000Y-177800000D01*
G37*
D13*
X71300000Y-169400000D03*
X71300000Y-170600000D03*
X71300000Y-171800000D03*
D11*
X47600000Y-165800000D03*
X47600000Y-168400000D03*
D14*
X47600000Y-170950000D03*
D15*
X34450000Y-171150000D03*
X34450000Y-173950000D03*
X34450000Y-176550000D03*
X34450000Y-168550000D03*
X34450000Y-163350000D03*
X34450000Y-165900000D03*
D16*
X50450000Y-174300000D03*
D17*
X34700000Y-165950000D03*
D16*
X64900000Y-166900000D03*
X56450000Y-175700000D03*
X59000000Y-164900000D03*
X54100000Y-175900000D03*
X71300000Y-166800000D03*
X61900000Y-168300000D03*
X60100000Y-166100000D03*
X42250000Y-169150000D03*
X49050000Y-172250000D03*
D17*
X71350000Y-175900000D03*
D18*
X63750000Y-164150000D03*
D19*
X47600000Y-165800000D03*
D16*
X69150000Y-173300000D03*
X69350000Y-168300000D03*
X57000000Y-167400000D03*
X59200000Y-172650000D03*
D19*
X47650000Y-168200000D03*
D16*
X66200000Y-176000000D03*
X61900000Y-176300000D03*
X69500000Y-169800000D03*
X63150000Y-171400000D03*
X61100000Y-175150000D03*
X58450000Y-174600000D03*
X56400000Y-174000000D03*
X47600000Y-170950000D03*
X46900000Y-175900000D03*
D19*
X34700000Y-171250000D03*
X55500000Y-172900000D03*
X34700000Y-173950000D03*
X53900000Y-167000000D03*
D16*
X66150000Y-169900000D03*
X63900000Y-176750000D03*
X40900000Y-164050000D03*
X55600000Y-176200000D03*
D17*
X34650000Y-168400000D03*
D16*
X63700000Y-168100000D03*
D19*
X34700000Y-176550000D03*
D16*
X66850000Y-175300000D03*
X58200000Y-166000000D03*
X70700000Y-172900000D03*
X66500000Y-168900000D03*
X68900000Y-170300000D03*
M02*
