<?xml version="1.0" standalone="no"?>
 <!DOCTYPE svg PUBLIC "-//W3C//DTD SVG 1.1//EN" 
 "http://www.w3.org/Graphics/SVG/1.1/DTD/svg11.dtd"> 
<svg xmlns="http://www.w3.org/2000/svg" version="1.1" 
    width="29.7002cm" height="21.0007cm" viewBox="0 0 116930 82680 ">
<title>SVG Picture created as motee-Margin.svg date 2016/04/20 18:51:54 </title>
  <desc>Picture generated by PCBNEW </desc>
<g style="fill:#000000; fill-opacity:1;stroke:#000000; stroke-opacity:1;
stroke-linecap:round; stroke-linejoin:round; "
 transform="translate(0 0) scale(1 1)">
</g>
<g style="fill:#000000; fill-opacity:0.0; 
stroke:#000000; stroke-width:-0.000393701; stroke-opacity:1; 
stroke-linecap:round; stroke-linejoin:round;">
</g>
<g style="fill:#000000; fill-opacity:0.0; 
stroke:#000000; stroke-width:78.7402; stroke-opacity:1; 
stroke-linecap:round; stroke-linejoin:round;">
<path d="M80473 51850
L80473 51948
" />
<path d="M76260 51850
L80473 51850
" />
<path d="M76260 51889
L76260 51850
" />
<path d="M76260 58110
L76260 51889
" />
<path d="M76280 58110
L76260 58110
" />
<path d="M80473 58110
L76280 58110
" />
<path d="M74744 58208
L74725 58208
" />
<path d="M74744 57381
L74744 58208
" />
<path d="M74725 52716
L74744 52716
" />
<path d="M74725 51850
L74725 52716
" />
<path d="M74784 57401
L74784 57362
" />
<path d="M72953 57401
L74784 57401
" />
<path d="M72953 57303
L72953 57401
" />
<path d="M72953 57165
L72953 57303
" />
<path d="M72953 52677
L72953 57165
" />
<path d="M74784 52677
L72953 52677
" />
<path d="M74784 51870
L74784 52677
" />
<circle cx="78445.7" cy="54960.6" r="845.311" /> 
<path d="M80469 51862
L80469 58112
" />
<path d="M74784 51850
L74823 51850
" />
<path d="M62579 58208
L74784 58208
" />
<path d="M62579 51850
L62579 58208
" />
<path d="M74784 51870
L62540 51870
" />
</g> 
</svg>
