G04 #@! TF.FileFunction,Copper,L2,Bot,Signal*
%FSLAX46Y46*%
G04 Gerber Fmt 4.6, Leading zero omitted, Abs format (unit mm)*
G04 Created by KiCad (PCBNEW 4.0.2-stable) date 2016-05-08 01:04:35*
%MOMM*%
G01*
G04 APERTURE LIST*
%ADD10C,0.020000*%
%ADD11R,2.800000X1.400000*%
%ADD12O,2.700000X2.000000*%
%ADD13R,1.524000X0.800000*%
%ADD14R,2.830000X1.400000*%
%ADD15R,1.400000X2.200000*%
%ADD16C,0.600000*%
%ADD17C,0.500000*%
%ADD18C,0.350000*%
%ADD19C,0.700000*%
%ADD20C,0.250000*%
%ADD21C,0.300000*%
%ADD22C,0.200000*%
%ADD23C,0.700000*%
G04 APERTURE END LIST*
D10*
D11*
X47600000Y-173650000D03*
D12*
X39350000Y-166350000D03*
X39350000Y-173900000D03*
D10*
G36*
X52900000Y-169700000D02*
X49900000Y-169700000D01*
X49900000Y-167500000D01*
X52900000Y-167500000D01*
X52900000Y-169700000D01*
X52900000Y-169700000D01*
G37*
G36*
X52900000Y-167000000D02*
X49900000Y-167000000D01*
X49900000Y-164800000D01*
X52900000Y-164800000D01*
X52900000Y-167000000D01*
X52900000Y-167000000D01*
G37*
G36*
X52900000Y-164300000D02*
X49900000Y-164300000D01*
X49900000Y-162100000D01*
X52900000Y-162100000D01*
X52900000Y-164300000D01*
X52900000Y-164300000D01*
G37*
G36*
X49900000Y-170200000D02*
X52900000Y-170200000D01*
X52900000Y-172400000D01*
X49900000Y-172400000D01*
X49900000Y-170200000D01*
X49900000Y-170200000D01*
G37*
G36*
X52900000Y-175100000D02*
X49900000Y-175100000D01*
X49900000Y-172900000D01*
X52900000Y-172900000D01*
X52900000Y-175100000D01*
X52900000Y-175100000D01*
G37*
G36*
X52900000Y-177800000D02*
X49900000Y-177800000D01*
X49900000Y-175600000D01*
X52900000Y-175600000D01*
X52900000Y-177800000D01*
X52900000Y-177800000D01*
G37*
D13*
X71300000Y-169400000D03*
X71300000Y-170600000D03*
X71300000Y-171800000D03*
D11*
X47600000Y-165800000D03*
X47600000Y-168400000D03*
D14*
X47600000Y-170950000D03*
D15*
X34450000Y-171150000D03*
X34450000Y-173950000D03*
X34450000Y-176550000D03*
X34450000Y-168550000D03*
X34450000Y-163350000D03*
X34450000Y-165900000D03*
D16*
X50450000Y-174300000D03*
D17*
X34700000Y-165950000D03*
D16*
X64900000Y-166900000D03*
X56450000Y-175700000D03*
X59000000Y-164900000D03*
X54100000Y-175900000D03*
X71300000Y-166800000D03*
X61900000Y-168300000D03*
X60100000Y-166100000D03*
X42250000Y-169150000D03*
X49050000Y-172250000D03*
D17*
X71350000Y-175900000D03*
D18*
X63750000Y-164150000D03*
D19*
X47600000Y-165800000D03*
D16*
X69150000Y-173300000D03*
X69350000Y-168300000D03*
X57000000Y-167400000D03*
X59200000Y-172650000D03*
D19*
X47650000Y-168200000D03*
D16*
X66200000Y-176000000D03*
X61900000Y-176300000D03*
X69500000Y-169800000D03*
X63150000Y-171400000D03*
X61100000Y-175150000D03*
X58450000Y-174600000D03*
X56400000Y-174000000D03*
X47600000Y-170950000D03*
X46900000Y-175900000D03*
D19*
X34700000Y-171250000D03*
X55500000Y-172900000D03*
X34700000Y-173950000D03*
X53900000Y-167000000D03*
D16*
X66150000Y-169900000D03*
X63900000Y-176750000D03*
X40900000Y-164050000D03*
X55600000Y-176200000D03*
D17*
X34650000Y-168400000D03*
D16*
X63700000Y-168100000D03*
D19*
X34700000Y-176550000D03*
D16*
X66850000Y-175300000D03*
X58200000Y-166000000D03*
X70700000Y-172900000D03*
X66500000Y-168900000D03*
X68900000Y-170300000D03*
D20*
X50450000Y-174300000D02*
X50750000Y-174000000D01*
X50750000Y-174000000D02*
X51400000Y-174000000D01*
X34150000Y-164950000D02*
X34250000Y-165050000D01*
X34250000Y-165050000D02*
X34350000Y-164950000D01*
X64950000Y-166900000D02*
X65000000Y-166800000D01*
X64950000Y-166950000D02*
X64950000Y-166900000D01*
X64900000Y-166900000D02*
X64950000Y-166950000D01*
X56450000Y-175700000D02*
X57500000Y-175700000D01*
X57500000Y-175700000D02*
X58900000Y-175700000D01*
X60400000Y-174200000D02*
X60400000Y-169600000D01*
X60400000Y-169600000D02*
X57100000Y-166300000D01*
X57100000Y-166300000D02*
X57100000Y-165400000D01*
X57100000Y-165400000D02*
X57600000Y-164900000D01*
X57600000Y-164900000D02*
X59000000Y-164900000D01*
X58900000Y-175700000D02*
X60400000Y-174200000D01*
X50550000Y-174450000D02*
X50700000Y-174000000D01*
X50700000Y-174000000D02*
X51400000Y-174000000D01*
X53600000Y-174000000D02*
X51400000Y-174000000D01*
X54100000Y-175900000D02*
X54100000Y-174500000D01*
X54100000Y-174500000D02*
X53600000Y-174000000D01*
X51700000Y-174000000D02*
X51400000Y-174000000D01*
X65000000Y-166800000D02*
X71300000Y-166800000D01*
X34700000Y-166000000D02*
X35350000Y-166000000D01*
X34700000Y-166000000D02*
X35150000Y-166000000D01*
X61900000Y-167300000D02*
X61900000Y-168300000D01*
X61300000Y-166700000D02*
X61900000Y-167300000D01*
X60700000Y-166700000D02*
X61300000Y-166700000D01*
X60100000Y-166100000D02*
X60700000Y-166700000D01*
D21*
X42250000Y-163900000D02*
X42250000Y-169150000D01*
X41650000Y-163300000D02*
X42250000Y-163900000D01*
X41650000Y-163300000D02*
X34750000Y-163300000D01*
D20*
X49050000Y-172250000D02*
X49300000Y-172500000D01*
X49300000Y-172500000D02*
X49350000Y-172500000D01*
X49350000Y-172500000D02*
X49500000Y-172650000D01*
X49500000Y-172650000D02*
X49500000Y-175700000D01*
X49500000Y-175700000D02*
X49600000Y-175800000D01*
X49600000Y-175800000D02*
X49600000Y-175850000D01*
X49600000Y-175850000D02*
X49600000Y-175800000D01*
X71100000Y-175800000D02*
X70950000Y-175650000D01*
X71250000Y-175800000D02*
X71100000Y-175800000D01*
X71350000Y-175900000D02*
X71250000Y-175800000D01*
X62950000Y-163350000D02*
X62650000Y-163350000D01*
X63750000Y-164150000D02*
X62950000Y-163350000D01*
X51400000Y-176700000D02*
X50500000Y-176700000D01*
X50500000Y-176700000D02*
X49600000Y-175800000D01*
X49600000Y-175800000D02*
X49300000Y-175500000D01*
X49300000Y-167500000D02*
X47600000Y-165800000D01*
X48500000Y-165350000D02*
X48750000Y-165526000D01*
X48750000Y-165526000D02*
X48500000Y-165950000D01*
X69400000Y-173050000D02*
X69150000Y-173300000D01*
X69400000Y-170850000D02*
X69400000Y-173050000D01*
X70150000Y-170100000D02*
X69400000Y-170850000D01*
X70150000Y-169100000D02*
X70150000Y-170100000D01*
X69350000Y-168300000D02*
X70150000Y-169100000D01*
X50700000Y-176700000D02*
X51400000Y-176700000D01*
D21*
X59250000Y-169650000D02*
X57000000Y-167400000D01*
X59250000Y-172600000D02*
X59250000Y-169650000D01*
X59200000Y-172650000D02*
X59250000Y-172600000D01*
D20*
X47650000Y-168200000D02*
X47460000Y-168390000D01*
X47460000Y-168390000D02*
X47400000Y-168350000D01*
X47750000Y-168090000D02*
X47624000Y-168216000D01*
X47624000Y-168216000D02*
X47400000Y-168050000D01*
X61900000Y-176200000D02*
X62100000Y-176000000D01*
X62100000Y-176000000D02*
X65500000Y-176000000D01*
X61900000Y-176200000D02*
X61900000Y-176300000D01*
X66200000Y-176000000D02*
X65500000Y-176000000D01*
X61900000Y-176300000D02*
X62000000Y-176200000D01*
X63550000Y-169600000D02*
X63150000Y-170000000D01*
X64700000Y-169600000D02*
X63550000Y-169600000D01*
X69500000Y-169700000D02*
X69500000Y-169800000D01*
X68000000Y-168200000D02*
X69500000Y-169700000D01*
X66100000Y-168200000D02*
X68000000Y-168200000D01*
X64700000Y-169600000D02*
X66100000Y-168200000D01*
X63150000Y-170000000D02*
X63150000Y-171400000D01*
X69200000Y-177400000D02*
X61750000Y-177400000D01*
X71300000Y-170600000D02*
X70400000Y-170600000D01*
X70000000Y-171000000D02*
X70400000Y-170600000D01*
X70000000Y-172900000D02*
X70000000Y-171000000D01*
X69200000Y-177400000D02*
X69300000Y-177400000D01*
X70000000Y-176700000D02*
X70000000Y-172900000D01*
X69300000Y-177400000D02*
X70000000Y-176700000D01*
X61100000Y-176750000D02*
X61100000Y-175150000D01*
X61750000Y-177400000D02*
X61100000Y-176750000D01*
D22*
X56900000Y-174500000D02*
X58350000Y-174500000D01*
X58450000Y-174600000D02*
X58350000Y-174500000D01*
X56900000Y-174500000D02*
X56400000Y-174000000D01*
D20*
X56900000Y-174500000D02*
X56400000Y-174000000D01*
X62750000Y-166950000D02*
X62750000Y-168250000D01*
X69500000Y-167600000D02*
X71300000Y-169400000D01*
X65500000Y-167600000D02*
X69500000Y-167600000D01*
X64300000Y-168800000D02*
X65500000Y-167600000D01*
X63300000Y-168800000D02*
X64300000Y-168800000D01*
X62750000Y-168250000D02*
X63300000Y-168800000D01*
X56400000Y-174000000D02*
X56400000Y-164900000D01*
X56400000Y-164900000D02*
X57200000Y-164100000D01*
X57200000Y-164100000D02*
X59900000Y-164100000D01*
X59900000Y-164100000D02*
X62750000Y-166950000D01*
X62750000Y-166950000D02*
X62800000Y-167000000D01*
X47500000Y-175300000D02*
X47500000Y-173650000D01*
X46900000Y-175900000D02*
X47500000Y-175300000D01*
D23*
X54900000Y-168600000D02*
X51400000Y-168600000D01*
X55500000Y-169200000D02*
X54900000Y-168600000D01*
X55500000Y-172900000D02*
X55500000Y-169200000D01*
X53900000Y-167000000D02*
X52800000Y-165900000D01*
X52800000Y-165900000D02*
X51400000Y-165900000D01*
D20*
X66150000Y-171400000D02*
X66150000Y-169900000D01*
X69450000Y-174700000D02*
X66150000Y-171400000D01*
X69450000Y-176000000D02*
X69450000Y-174700000D01*
X68700000Y-176750000D02*
X69450000Y-176000000D01*
X63900000Y-176750000D02*
X68700000Y-176750000D01*
X40900000Y-164050000D02*
X38500000Y-164050000D01*
X38500000Y-164050000D02*
X36100000Y-166450000D01*
D21*
X40900000Y-164050000D02*
X40850000Y-164000000D01*
D20*
X36100000Y-166450000D02*
X36100000Y-167150000D01*
X36100000Y-167150000D02*
X36100000Y-168100000D01*
X36100000Y-168100000D02*
X35650000Y-168550000D01*
X35650000Y-168550000D02*
X34700000Y-168550000D01*
D21*
X52600000Y-171300000D02*
X55600000Y-174300000D01*
D20*
X55600000Y-174300000D02*
X55600000Y-176200000D01*
D21*
X51400000Y-171300000D02*
X52600000Y-171300000D01*
D20*
X60300000Y-163200000D02*
X63750000Y-166650000D01*
X60300000Y-163200000D02*
X51400000Y-163200000D01*
X63700000Y-168100000D02*
X63750000Y-168050000D01*
X63750000Y-168050000D02*
X63750000Y-166650000D01*
X61100000Y-173000000D02*
X61100000Y-173600000D01*
X61100000Y-170200000D02*
X61100000Y-173000000D01*
X61100000Y-173600000D02*
X62500000Y-175000000D01*
X66550000Y-175000000D02*
X62500000Y-175000000D01*
X66850000Y-175300000D02*
X66550000Y-175000000D01*
X61100000Y-168900000D02*
X58200000Y-166000000D01*
X61100000Y-170300000D02*
X61100000Y-170200000D01*
X61100000Y-170200000D02*
X61100000Y-168900000D01*
X71300000Y-172300000D02*
X70700000Y-172900000D01*
X71300000Y-171800000D02*
X71300000Y-172300000D01*
X67500000Y-168900000D02*
X66500000Y-168900000D01*
X68900000Y-170300000D02*
X67500000Y-168900000D01*
D21*
G36*
X35572668Y-177828505D02*
X35608816Y-177650000D01*
X35608816Y-175450000D01*
X35577438Y-175283240D01*
X35556986Y-175251456D01*
X35572668Y-175228505D01*
X35608816Y-175050000D01*
X35608816Y-172850000D01*
X35577438Y-172683240D01*
X35490708Y-172548457D01*
X35572668Y-172428505D01*
X35608816Y-172250000D01*
X35608816Y-170050000D01*
X35577438Y-169883240D01*
X35556986Y-169851456D01*
X35572668Y-169828505D01*
X35608816Y-169650000D01*
X35608816Y-169125000D01*
X35650000Y-169125000D01*
X35870043Y-169081231D01*
X36056586Y-168956586D01*
X36506586Y-168506586D01*
X36631231Y-168320043D01*
X36675000Y-168100000D01*
X36675000Y-166688173D01*
X37739985Y-165623187D01*
X37625111Y-165795109D01*
X37514736Y-166350000D01*
X37625111Y-166904891D01*
X37939431Y-167375305D01*
X38409845Y-167689625D01*
X38964736Y-167800000D01*
X39735264Y-167800000D01*
X40290155Y-167689625D01*
X40760569Y-167375305D01*
X41074889Y-166904891D01*
X41185264Y-166350000D01*
X41074889Y-165795109D01*
X40760569Y-165324695D01*
X40290155Y-165010375D01*
X39735264Y-164900000D01*
X38964736Y-164900000D01*
X38409845Y-165010375D01*
X38237923Y-165125250D01*
X38738172Y-164625000D01*
X40414262Y-164625000D01*
X40474605Y-164685448D01*
X40750161Y-164799869D01*
X41048530Y-164800130D01*
X41324286Y-164686189D01*
X41535448Y-164475395D01*
X41649869Y-164199839D01*
X41650130Y-163901470D01*
X41536189Y-163625714D01*
X41325395Y-163414552D01*
X41049839Y-163300131D01*
X40751470Y-163299870D01*
X40475714Y-163413811D01*
X40414418Y-163475000D01*
X38500000Y-163475000D01*
X38279957Y-163518769D01*
X38093414Y-163643414D01*
X35893780Y-165843047D01*
X35881231Y-165779957D01*
X35756586Y-165593414D01*
X35608816Y-165494676D01*
X35608816Y-164800000D01*
X35577438Y-164633240D01*
X35567544Y-164617865D01*
X35600000Y-164539511D01*
X35600000Y-163612500D01*
X35487500Y-163500000D01*
X34600000Y-163500000D01*
X34600000Y-163520000D01*
X34300000Y-163520000D01*
X34300000Y-163500000D01*
X34280000Y-163500000D01*
X34280000Y-163200000D01*
X34300000Y-163200000D01*
X34300000Y-163180000D01*
X34600000Y-163180000D01*
X34600000Y-163200000D01*
X35487500Y-163200000D01*
X35600000Y-163087500D01*
X35600000Y-162250000D01*
X44250000Y-162250000D01*
X44250000Y-173900000D01*
X41185264Y-173900000D01*
X41074889Y-173345109D01*
X40760569Y-172874695D01*
X40290155Y-172560375D01*
X39735264Y-172450000D01*
X38964736Y-172450000D01*
X38409845Y-172560375D01*
X37939431Y-172874695D01*
X37625111Y-173345109D01*
X37514736Y-173900000D01*
X37625111Y-174454891D01*
X37939431Y-174925305D01*
X38409845Y-175239625D01*
X38964736Y-175350000D01*
X39735264Y-175350000D01*
X40290155Y-175239625D01*
X40760569Y-174925305D01*
X41074889Y-174454891D01*
X41185264Y-173900000D01*
X44250000Y-173900000D01*
X44250000Y-177850000D01*
X35557981Y-177850000D01*
X35572668Y-177828505D01*
X35572668Y-177828505D01*
G37*
X35572668Y-177828505D02*
X35608816Y-177650000D01*
X35608816Y-175450000D01*
X35577438Y-175283240D01*
X35556986Y-175251456D01*
X35572668Y-175228505D01*
X35608816Y-175050000D01*
X35608816Y-172850000D01*
X35577438Y-172683240D01*
X35490708Y-172548457D01*
X35572668Y-172428505D01*
X35608816Y-172250000D01*
X35608816Y-170050000D01*
X35577438Y-169883240D01*
X35556986Y-169851456D01*
X35572668Y-169828505D01*
X35608816Y-169650000D01*
X35608816Y-169125000D01*
X35650000Y-169125000D01*
X35870043Y-169081231D01*
X36056586Y-168956586D01*
X36506586Y-168506586D01*
X36631231Y-168320043D01*
X36675000Y-168100000D01*
X36675000Y-166688173D01*
X37739985Y-165623187D01*
X37625111Y-165795109D01*
X37514736Y-166350000D01*
X37625111Y-166904891D01*
X37939431Y-167375305D01*
X38409845Y-167689625D01*
X38964736Y-167800000D01*
X39735264Y-167800000D01*
X40290155Y-167689625D01*
X40760569Y-167375305D01*
X41074889Y-166904891D01*
X41185264Y-166350000D01*
X41074889Y-165795109D01*
X40760569Y-165324695D01*
X40290155Y-165010375D01*
X39735264Y-164900000D01*
X38964736Y-164900000D01*
X38409845Y-165010375D01*
X38237923Y-165125250D01*
X38738172Y-164625000D01*
X40414262Y-164625000D01*
X40474605Y-164685448D01*
X40750161Y-164799869D01*
X41048530Y-164800130D01*
X41324286Y-164686189D01*
X41535448Y-164475395D01*
X41649869Y-164199839D01*
X41650130Y-163901470D01*
X41536189Y-163625714D01*
X41325395Y-163414552D01*
X41049839Y-163300131D01*
X40751470Y-163299870D01*
X40475714Y-163413811D01*
X40414418Y-163475000D01*
X38500000Y-163475000D01*
X38279957Y-163518769D01*
X38093414Y-163643414D01*
X35893780Y-165843047D01*
X35881231Y-165779957D01*
X35756586Y-165593414D01*
X35608816Y-165494676D01*
X35608816Y-164800000D01*
X35577438Y-164633240D01*
X35567544Y-164617865D01*
X35600000Y-164539511D01*
X35600000Y-163612500D01*
X35487500Y-163500000D01*
X34600000Y-163500000D01*
X34600000Y-163520000D01*
X34300000Y-163520000D01*
X34300000Y-163500000D01*
X34280000Y-163500000D01*
X34280000Y-163200000D01*
X34300000Y-163200000D01*
X34300000Y-163180000D01*
X34600000Y-163180000D01*
X34600000Y-163200000D01*
X35487500Y-163200000D01*
X35600000Y-163087500D01*
X35600000Y-162250000D01*
X44250000Y-162250000D01*
X44250000Y-173900000D01*
X41185264Y-173900000D01*
X41074889Y-173345109D01*
X40760569Y-172874695D01*
X40290155Y-172560375D01*
X39735264Y-172450000D01*
X38964736Y-172450000D01*
X38409845Y-172560375D01*
X37939431Y-172874695D01*
X37625111Y-173345109D01*
X37514736Y-173900000D01*
X37625111Y-174454891D01*
X37939431Y-174925305D01*
X38409845Y-175239625D01*
X38964736Y-175350000D01*
X39735264Y-175350000D01*
X40290155Y-175239625D01*
X40760569Y-174925305D01*
X41074889Y-174454891D01*
X41185264Y-173900000D01*
X44250000Y-173900000D01*
X44250000Y-177850000D01*
X35557981Y-177850000D01*
X35572668Y-177828505D01*
G36*
X72150000Y-177849715D02*
X69649141Y-177844970D01*
X69706586Y-177806586D01*
X70406586Y-177106587D01*
X70531231Y-176920043D01*
X70535510Y-176898530D01*
X70575000Y-176700000D01*
X70575000Y-173649891D01*
X70848530Y-173650130D01*
X71124286Y-173536189D01*
X71335448Y-173325395D01*
X71449869Y-173049839D01*
X71449945Y-172963227D01*
X71706586Y-172706586D01*
X71738505Y-172658816D01*
X72062000Y-172658816D01*
X72150000Y-172642258D01*
X72150000Y-177849715D01*
X72150000Y-177849715D01*
G37*
X72150000Y-177849715D02*
X69649141Y-177844970D01*
X69706586Y-177806586D01*
X70406586Y-177106587D01*
X70531231Y-176920043D01*
X70535510Y-176898530D01*
X70575000Y-176700000D01*
X70575000Y-173649891D01*
X70848530Y-173650130D01*
X71124286Y-173536189D01*
X71335448Y-173325395D01*
X71449869Y-173049839D01*
X71449945Y-172963227D01*
X71706586Y-172706586D01*
X71738505Y-172658816D01*
X72062000Y-172658816D01*
X72150000Y-172642258D01*
X72150000Y-177849715D01*
G36*
X55025000Y-174573528D02*
X55025000Y-175714262D01*
X54964552Y-175774605D01*
X54850131Y-176050161D01*
X54849870Y-176348530D01*
X54963811Y-176624286D01*
X55174605Y-176835448D01*
X55450161Y-176949869D01*
X55748530Y-176950130D01*
X56024286Y-176836189D01*
X56235448Y-176625395D01*
X56308330Y-176449876D01*
X56598530Y-176450130D01*
X56874286Y-176336189D01*
X56935582Y-176275000D01*
X58900000Y-176275000D01*
X59120043Y-176231231D01*
X59306586Y-176106586D01*
X60350076Y-175063097D01*
X60349870Y-175298530D01*
X60463811Y-175574286D01*
X60525000Y-175635582D01*
X60525000Y-176750000D01*
X60561888Y-176935448D01*
X60568769Y-176970043D01*
X60693414Y-177156586D01*
X61343414Y-177806587D01*
X61377367Y-177829273D01*
X53355970Y-177814053D01*
X53358816Y-177800000D01*
X53358816Y-176850000D01*
X51550000Y-176850000D01*
X51550000Y-176870000D01*
X51250000Y-176870000D01*
X51250000Y-176850000D01*
X49441184Y-176850000D01*
X49441184Y-177800000D01*
X49442431Y-177806626D01*
X46100000Y-177800284D01*
X46100000Y-174788566D01*
X46200000Y-174808816D01*
X46925000Y-174808816D01*
X46925000Y-175061828D01*
X46836883Y-175149945D01*
X46751470Y-175149870D01*
X46475714Y-175263811D01*
X46264552Y-175474605D01*
X46150131Y-175750161D01*
X46149870Y-176048530D01*
X46263811Y-176324286D01*
X46474605Y-176535448D01*
X46750161Y-176649869D01*
X47048530Y-176650130D01*
X47324286Y-176536189D01*
X47535448Y-176325395D01*
X47649869Y-176049839D01*
X47649945Y-175963227D01*
X47906586Y-175706586D01*
X48031231Y-175520043D01*
X48036528Y-175493414D01*
X48075000Y-175300000D01*
X48075000Y-174808816D01*
X49000000Y-174808816D01*
X49166760Y-174777438D01*
X49319919Y-174678883D01*
X49422668Y-174528505D01*
X49441184Y-174437070D01*
X49441184Y-175100000D01*
X49472562Y-175266760D01*
X49526153Y-175350043D01*
X49477332Y-175421495D01*
X49441184Y-175600000D01*
X49441184Y-176550000D01*
X51250000Y-176550000D01*
X51250000Y-176530000D01*
X51550000Y-176530000D01*
X51550000Y-176550000D01*
X53358816Y-176550000D01*
X53358816Y-176070181D01*
X53463811Y-176324286D01*
X53674605Y-176535448D01*
X53950161Y-176649869D01*
X54248530Y-176650130D01*
X54524286Y-176536189D01*
X54735448Y-176325395D01*
X54849869Y-176049839D01*
X54850130Y-175751470D01*
X54736189Y-175475714D01*
X54675000Y-175414418D01*
X54675000Y-174500000D01*
X54631231Y-174279957D01*
X54506587Y-174093414D01*
X54006586Y-173593414D01*
X53820043Y-173468769D01*
X53600000Y-173425000D01*
X53358816Y-173425000D01*
X53358816Y-172907344D01*
X55025000Y-174573528D01*
X55025000Y-174573528D01*
G37*
X55025000Y-174573528D02*
X55025000Y-175714262D01*
X54964552Y-175774605D01*
X54850131Y-176050161D01*
X54849870Y-176348530D01*
X54963811Y-176624286D01*
X55174605Y-176835448D01*
X55450161Y-176949869D01*
X55748530Y-176950130D01*
X56024286Y-176836189D01*
X56235448Y-176625395D01*
X56308330Y-176449876D01*
X56598530Y-176450130D01*
X56874286Y-176336189D01*
X56935582Y-176275000D01*
X58900000Y-176275000D01*
X59120043Y-176231231D01*
X59306586Y-176106586D01*
X60350076Y-175063097D01*
X60349870Y-175298530D01*
X60463811Y-175574286D01*
X60525000Y-175635582D01*
X60525000Y-176750000D01*
X60561888Y-176935448D01*
X60568769Y-176970043D01*
X60693414Y-177156586D01*
X61343414Y-177806587D01*
X61377367Y-177829273D01*
X53355970Y-177814053D01*
X53358816Y-177800000D01*
X53358816Y-176850000D01*
X51550000Y-176850000D01*
X51550000Y-176870000D01*
X51250000Y-176870000D01*
X51250000Y-176850000D01*
X49441184Y-176850000D01*
X49441184Y-177800000D01*
X49442431Y-177806626D01*
X46100000Y-177800284D01*
X46100000Y-174788566D01*
X46200000Y-174808816D01*
X46925000Y-174808816D01*
X46925000Y-175061828D01*
X46836883Y-175149945D01*
X46751470Y-175149870D01*
X46475714Y-175263811D01*
X46264552Y-175474605D01*
X46150131Y-175750161D01*
X46149870Y-176048530D01*
X46263811Y-176324286D01*
X46474605Y-176535448D01*
X46750161Y-176649869D01*
X47048530Y-176650130D01*
X47324286Y-176536189D01*
X47535448Y-176325395D01*
X47649869Y-176049839D01*
X47649945Y-175963227D01*
X47906586Y-175706586D01*
X48031231Y-175520043D01*
X48036528Y-175493414D01*
X48075000Y-175300000D01*
X48075000Y-174808816D01*
X49000000Y-174808816D01*
X49166760Y-174777438D01*
X49319919Y-174678883D01*
X49422668Y-174528505D01*
X49441184Y-174437070D01*
X49441184Y-175100000D01*
X49472562Y-175266760D01*
X49526153Y-175350043D01*
X49477332Y-175421495D01*
X49441184Y-175600000D01*
X49441184Y-176550000D01*
X51250000Y-176550000D01*
X51250000Y-176530000D01*
X51550000Y-176530000D01*
X51550000Y-176550000D01*
X53358816Y-176550000D01*
X53358816Y-176070181D01*
X53463811Y-176324286D01*
X53674605Y-176535448D01*
X53950161Y-176649869D01*
X54248530Y-176650130D01*
X54524286Y-176536189D01*
X54735448Y-176325395D01*
X54849869Y-176049839D01*
X54850130Y-175751470D01*
X54736189Y-175475714D01*
X54675000Y-175414418D01*
X54675000Y-174500000D01*
X54631231Y-174279957D01*
X54506587Y-174093414D01*
X54006586Y-173593414D01*
X53820043Y-173468769D01*
X53600000Y-173425000D01*
X53358816Y-173425000D01*
X53358816Y-172907344D01*
X55025000Y-174573528D01*
G36*
X68149945Y-170363117D02*
X68149870Y-170448530D01*
X68263811Y-170724286D01*
X68474605Y-170935448D01*
X68750161Y-171049869D01*
X69048530Y-171050130D01*
X69324286Y-170936189D01*
X69465790Y-170794931D01*
X69425000Y-171000000D01*
X69425000Y-173861827D01*
X66725000Y-171161828D01*
X66725000Y-170385738D01*
X66785448Y-170325395D01*
X66899869Y-170049839D01*
X66900130Y-169751470D01*
X66827672Y-169576109D01*
X66924286Y-169536189D01*
X66985582Y-169475000D01*
X67261828Y-169475000D01*
X68149945Y-170363117D01*
X68149945Y-170363117D01*
G37*
X68149945Y-170363117D02*
X68149870Y-170448530D01*
X68263811Y-170724286D01*
X68474605Y-170935448D01*
X68750161Y-171049869D01*
X69048530Y-171050130D01*
X69324286Y-170936189D01*
X69465790Y-170794931D01*
X69425000Y-171000000D01*
X69425000Y-173861827D01*
X66725000Y-171161828D01*
X66725000Y-170385738D01*
X66785448Y-170325395D01*
X66899869Y-170049839D01*
X66900130Y-169751470D01*
X66827672Y-169576109D01*
X66924286Y-169536189D01*
X66985582Y-169475000D01*
X67261828Y-169475000D01*
X68149945Y-170363117D01*
G36*
X49441184Y-172400000D02*
X49472562Y-172566760D01*
X49526153Y-172650043D01*
X49477332Y-172721495D01*
X49445447Y-172878949D01*
X49427438Y-172783240D01*
X49328883Y-172630081D01*
X49178505Y-172527332D01*
X49000000Y-172491184D01*
X46200000Y-172491184D01*
X46100000Y-172510000D01*
X46100000Y-172091603D01*
X46185000Y-172108816D01*
X49015000Y-172108816D01*
X49181760Y-172077438D01*
X49334919Y-171978883D01*
X49437668Y-171828505D01*
X49441184Y-171811142D01*
X49441184Y-172400000D01*
X49441184Y-172400000D01*
G37*
X49441184Y-172400000D02*
X49472562Y-172566760D01*
X49526153Y-172650043D01*
X49477332Y-172721495D01*
X49445447Y-172878949D01*
X49427438Y-172783240D01*
X49328883Y-172630081D01*
X49178505Y-172527332D01*
X49000000Y-172491184D01*
X46200000Y-172491184D01*
X46100000Y-172510000D01*
X46100000Y-172091603D01*
X46185000Y-172108816D01*
X49015000Y-172108816D01*
X49181760Y-172077438D01*
X49334919Y-171978883D01*
X49437668Y-171828505D01*
X49441184Y-171811142D01*
X49441184Y-172400000D01*
G36*
X70080471Y-168993644D02*
X70079184Y-169000000D01*
X70079184Y-169318609D01*
X69925395Y-169164552D01*
X69672865Y-169059692D01*
X68788172Y-168175000D01*
X69261828Y-168175000D01*
X70080471Y-168993644D01*
X70080471Y-168993644D01*
G37*
X70080471Y-168993644D02*
X70079184Y-169000000D01*
X70079184Y-169318609D01*
X69925395Y-169164552D01*
X69672865Y-169059692D01*
X68788172Y-168175000D01*
X69261828Y-168175000D01*
X70080471Y-168993644D01*
G36*
X72150000Y-168559004D02*
X72062000Y-168541184D01*
X71254357Y-168541184D01*
X70088172Y-167375000D01*
X70814262Y-167375000D01*
X70874605Y-167435448D01*
X71150161Y-167549869D01*
X71448530Y-167550130D01*
X71724286Y-167436189D01*
X71935448Y-167225395D01*
X72049869Y-166949839D01*
X72050130Y-166651470D01*
X71936189Y-166375714D01*
X71725395Y-166164552D01*
X71449839Y-166050131D01*
X71151470Y-166049870D01*
X70875714Y-166163811D01*
X70814418Y-166225000D01*
X65230143Y-166225000D01*
X65049839Y-166150131D01*
X64751470Y-166149870D01*
X64475714Y-166263811D01*
X64285877Y-166453317D01*
X64281231Y-166429957D01*
X64156587Y-166243414D01*
X60706586Y-162793414D01*
X60520043Y-162668769D01*
X60300000Y-162625000D01*
X53358816Y-162625000D01*
X53358816Y-162100000D01*
X53340000Y-162000000D01*
X72150000Y-162000000D01*
X72150000Y-168559004D01*
X72150000Y-168559004D01*
G37*
X72150000Y-168559004D02*
X72062000Y-168541184D01*
X71254357Y-168541184D01*
X70088172Y-167375000D01*
X70814262Y-167375000D01*
X70874605Y-167435448D01*
X71150161Y-167549869D01*
X71448530Y-167550130D01*
X71724286Y-167436189D01*
X71935448Y-167225395D01*
X72049869Y-166949839D01*
X72050130Y-166651470D01*
X71936189Y-166375714D01*
X71725395Y-166164552D01*
X71449839Y-166050131D01*
X71151470Y-166049870D01*
X70875714Y-166163811D01*
X70814418Y-166225000D01*
X65230143Y-166225000D01*
X65049839Y-166150131D01*
X64751470Y-166149870D01*
X64475714Y-166263811D01*
X64285877Y-166453317D01*
X64281231Y-166429957D01*
X64156587Y-166243414D01*
X60706586Y-162793414D01*
X60520043Y-162668769D01*
X60300000Y-162625000D01*
X53358816Y-162625000D01*
X53358816Y-162100000D01*
X53340000Y-162000000D01*
X72150000Y-162000000D01*
X72150000Y-168559004D01*
G36*
X49441184Y-162100000D02*
X49441184Y-164300000D01*
X49472562Y-164466760D01*
X49526153Y-164550043D01*
X49477332Y-164621495D01*
X49441184Y-164800000D01*
X49441184Y-164989206D01*
X49381492Y-164845096D01*
X49254905Y-164718509D01*
X49089511Y-164650000D01*
X47862500Y-164650000D01*
X47750000Y-164762500D01*
X47750000Y-165650000D01*
X47770000Y-165650000D01*
X47770000Y-165950000D01*
X47750000Y-165950000D01*
X47750000Y-166837500D01*
X47862500Y-166950000D01*
X49089511Y-166950000D01*
X49254905Y-166881491D01*
X49381492Y-166754904D01*
X49441184Y-166610794D01*
X49441184Y-167000000D01*
X49472562Y-167166760D01*
X49526153Y-167250043D01*
X49477332Y-167321495D01*
X49441184Y-167500000D01*
X49441184Y-167606294D01*
X49427438Y-167533240D01*
X49328883Y-167380081D01*
X49178505Y-167277332D01*
X49000000Y-167241184D01*
X46200000Y-167241184D01*
X46100000Y-167260000D01*
X46100000Y-166945655D01*
X46110489Y-166950000D01*
X47337500Y-166950000D01*
X47450000Y-166837500D01*
X47450000Y-165950000D01*
X47430000Y-165950000D01*
X47430000Y-165650000D01*
X47450000Y-165650000D01*
X47450000Y-164762500D01*
X47337500Y-164650000D01*
X46110489Y-164650000D01*
X46100000Y-164654345D01*
X46100000Y-162000000D01*
X49461434Y-162000000D01*
X49441184Y-162100000D01*
X49441184Y-162100000D01*
G37*
X49441184Y-162100000D02*
X49441184Y-164300000D01*
X49472562Y-164466760D01*
X49526153Y-164550043D01*
X49477332Y-164621495D01*
X49441184Y-164800000D01*
X49441184Y-164989206D01*
X49381492Y-164845096D01*
X49254905Y-164718509D01*
X49089511Y-164650000D01*
X47862500Y-164650000D01*
X47750000Y-164762500D01*
X47750000Y-165650000D01*
X47770000Y-165650000D01*
X47770000Y-165950000D01*
X47750000Y-165950000D01*
X47750000Y-166837500D01*
X47862500Y-166950000D01*
X49089511Y-166950000D01*
X49254905Y-166881491D01*
X49381492Y-166754904D01*
X49441184Y-166610794D01*
X49441184Y-167000000D01*
X49472562Y-167166760D01*
X49526153Y-167250043D01*
X49477332Y-167321495D01*
X49441184Y-167500000D01*
X49441184Y-167606294D01*
X49427438Y-167533240D01*
X49328883Y-167380081D01*
X49178505Y-167277332D01*
X49000000Y-167241184D01*
X46200000Y-167241184D01*
X46100000Y-167260000D01*
X46100000Y-166945655D01*
X46110489Y-166950000D01*
X47337500Y-166950000D01*
X47450000Y-166837500D01*
X47450000Y-165950000D01*
X47430000Y-165950000D01*
X47430000Y-165650000D01*
X47450000Y-165650000D01*
X47450000Y-164762500D01*
X47337500Y-164650000D01*
X46110489Y-164650000D01*
X46100000Y-164654345D01*
X46100000Y-162000000D01*
X49461434Y-162000000D01*
X49441184Y-162100000D01*
M02*
