G04 #@! TF.FileFunction,Legend,Top*
%FSLAX46Y46*%
G04 Gerber Fmt 4.6, Leading zero omitted, Abs format (unit mm)*
G04 Created by KiCad (PCBNEW 4.0.2-stable) date 2016-05-08 01:04:35*
%MOMM*%
G01*
G04 APERTURE LIST*
%ADD10C,0.020000*%
%ADD11C,0.099060*%
%ADD12C,0.203200*%
%ADD13C,0.150000*%
%ADD14C,0.152400*%
%ADD15C,0.002000*%
G04 APERTURE END LIST*
D10*
D11*
X63951400Y-171151400D02*
X64477180Y-171151400D01*
X66422820Y-171151400D02*
X66948600Y-171151400D01*
X66948600Y-171151400D02*
X66948600Y-171677180D01*
X66948600Y-173622820D02*
X66948600Y-174148600D01*
X63951400Y-174148600D02*
X64477180Y-174148600D01*
X66422820Y-174148600D02*
X66948600Y-174148600D01*
X63951400Y-171151400D02*
X63951400Y-171677180D01*
X63951400Y-173622820D02*
X63951400Y-174148600D01*
X63951400Y-173848880D02*
X64251120Y-174148600D01*
D12*
X53000000Y-177400000D02*
G75*
G03X53000000Y-177400000I-200000J0D01*
G01*
X51600000Y-177200000D02*
X52100000Y-177200000D01*
X52100000Y-177200000D02*
X52100000Y-176700000D01*
X51600000Y-177200000D02*
X49100000Y-177200000D01*
X52100000Y-176700000D02*
X52100000Y-174200000D01*
X52100000Y-174200000D02*
X49100000Y-174200000D01*
X49100000Y-174200000D02*
X49100000Y-177200000D01*
D13*
X61550000Y-165275000D02*
X61050000Y-165275000D01*
X61050000Y-166325000D02*
X61550000Y-166325000D01*
X55650000Y-165200000D02*
X54950000Y-165200000D01*
X54950000Y-164000000D02*
X55650000Y-164000000D01*
X64775000Y-168450000D02*
X64775000Y-168950000D01*
X65825000Y-168950000D02*
X65825000Y-168450000D01*
X59650000Y-163700000D02*
X60350000Y-163700000D01*
X60350000Y-164900000D02*
X59650000Y-164900000D01*
X61625000Y-168050000D02*
X61625000Y-167550000D01*
X60575000Y-167550000D02*
X60575000Y-168050000D01*
X55225000Y-176450000D02*
X55225000Y-175950000D01*
X54175000Y-175950000D02*
X54175000Y-176450000D01*
X50450000Y-173925000D02*
X50950000Y-173925000D01*
X50950000Y-172875000D02*
X50450000Y-172875000D01*
X61725000Y-172550000D02*
X61725000Y-172050000D01*
X60675000Y-172050000D02*
X60675000Y-172550000D01*
X68325000Y-168200000D02*
X68325000Y-167700000D01*
X67275000Y-167700000D02*
X67275000Y-168200000D01*
X67550000Y-169475000D02*
X67050000Y-169475000D01*
X67050000Y-170525000D02*
X67550000Y-170525000D01*
X69600000Y-172550000D02*
X69600000Y-173250000D01*
X68400000Y-173250000D02*
X68400000Y-172550000D01*
X58225000Y-165350000D02*
X58225000Y-164850000D01*
X57175000Y-164850000D02*
X57175000Y-165350000D01*
D14*
X55750600Y-171925000D02*
X54480600Y-170655000D01*
X60119400Y-171925000D02*
X60119400Y-168275000D01*
X60119400Y-168275000D02*
X54480600Y-168275000D01*
X54480600Y-168275000D02*
X54480600Y-171925000D01*
X54480600Y-171925000D02*
X60119400Y-171925000D01*
D13*
X49850000Y-164950000D02*
X49850000Y-169050000D01*
X46850000Y-164950000D02*
X46850000Y-169050000D01*
X65250000Y-163150000D02*
X69350000Y-163150000D01*
X65250000Y-166150000D02*
X69350000Y-166150000D01*
X42636456Y-172049774D02*
X42612326Y-172091569D01*
X41844084Y-174824282D02*
X41236966Y-174473762D01*
X41236966Y-174473762D02*
X41361426Y-174258191D01*
X42636456Y-172049774D02*
X42736786Y-171875998D01*
X42736786Y-171875998D02*
X43343904Y-172226518D01*
X41237296Y-166200014D02*
X41261426Y-166241809D01*
X43243904Y-168273482D02*
X42636786Y-168624002D01*
X42636786Y-168624002D02*
X42512326Y-168408431D01*
X41237296Y-166200014D02*
X41136966Y-166026238D01*
X41136966Y-166026238D02*
X41744084Y-165675718D01*
D15*
X57345357Y-172745833D02*
X57351405Y-172751881D01*
X57357452Y-172770024D01*
X57357452Y-172782119D01*
X57351405Y-172800262D01*
X57339310Y-172812357D01*
X57327214Y-172818405D01*
X57303024Y-172824453D01*
X57284881Y-172824453D01*
X57260690Y-172818405D01*
X57248595Y-172812357D01*
X57236500Y-172800262D01*
X57230452Y-172782119D01*
X57230452Y-172770024D01*
X57236500Y-172751881D01*
X57242548Y-172745833D01*
X57357452Y-172673262D02*
X57351405Y-172685357D01*
X57345357Y-172691405D01*
X57333262Y-172697453D01*
X57296976Y-172697453D01*
X57284881Y-172691405D01*
X57278833Y-172685357D01*
X57272786Y-172673262D01*
X57272786Y-172655119D01*
X57278833Y-172643024D01*
X57284881Y-172636976D01*
X57296976Y-172630929D01*
X57333262Y-172630929D01*
X57345357Y-172636976D01*
X57351405Y-172643024D01*
X57357452Y-172655119D01*
X57357452Y-172673262D01*
X57272786Y-172576500D02*
X57399786Y-172576500D01*
X57278833Y-172576500D02*
X57272786Y-172564405D01*
X57272786Y-172540214D01*
X57278833Y-172528119D01*
X57284881Y-172522071D01*
X57296976Y-172516024D01*
X57333262Y-172516024D01*
X57345357Y-172522071D01*
X57351405Y-172528119D01*
X57357452Y-172540214D01*
X57357452Y-172564405D01*
X57351405Y-172576500D01*
X57272786Y-172473690D02*
X57357452Y-172443452D01*
X57272786Y-172413214D02*
X57357452Y-172443452D01*
X57387690Y-172455547D01*
X57393738Y-172461595D01*
X57399786Y-172473690D01*
X57357452Y-172364833D02*
X57272786Y-172364833D01*
X57296976Y-172364833D02*
X57284881Y-172358785D01*
X57278833Y-172352738D01*
X57272786Y-172340642D01*
X57272786Y-172328547D01*
X57357452Y-172286214D02*
X57272786Y-172286214D01*
X57230452Y-172286214D02*
X57236500Y-172292262D01*
X57242548Y-172286214D01*
X57236500Y-172280166D01*
X57230452Y-172286214D01*
X57242548Y-172286214D01*
X57272786Y-172171309D02*
X57375595Y-172171309D01*
X57387690Y-172177357D01*
X57393738Y-172183405D01*
X57399786Y-172195500D01*
X57399786Y-172213643D01*
X57393738Y-172225738D01*
X57351405Y-172171309D02*
X57357452Y-172183405D01*
X57357452Y-172207595D01*
X57351405Y-172219690D01*
X57345357Y-172225738D01*
X57333262Y-172231786D01*
X57296976Y-172231786D01*
X57284881Y-172225738D01*
X57278833Y-172219690D01*
X57272786Y-172207595D01*
X57272786Y-172183405D01*
X57278833Y-172171309D01*
X57357452Y-172110833D02*
X57230452Y-172110833D01*
X57357452Y-172056404D02*
X57290929Y-172056404D01*
X57278833Y-172062452D01*
X57272786Y-172074547D01*
X57272786Y-172092690D01*
X57278833Y-172104785D01*
X57284881Y-172110833D01*
X57272786Y-172014071D02*
X57272786Y-171965690D01*
X57230452Y-171995928D02*
X57339310Y-171995928D01*
X57351405Y-171989880D01*
X57357452Y-171977785D01*
X57357452Y-171965690D01*
X57242548Y-171832643D02*
X57236500Y-171826595D01*
X57230452Y-171814500D01*
X57230452Y-171784262D01*
X57236500Y-171772166D01*
X57242548Y-171766119D01*
X57254643Y-171760071D01*
X57266738Y-171760071D01*
X57284881Y-171766119D01*
X57357452Y-171838690D01*
X57357452Y-171760071D01*
X57230452Y-171681452D02*
X57230452Y-171669357D01*
X57236500Y-171657262D01*
X57242548Y-171651214D01*
X57254643Y-171645167D01*
X57278833Y-171639119D01*
X57309071Y-171639119D01*
X57333262Y-171645167D01*
X57345357Y-171651214D01*
X57351405Y-171657262D01*
X57357452Y-171669357D01*
X57357452Y-171681452D01*
X57351405Y-171693548D01*
X57345357Y-171699595D01*
X57333262Y-171705643D01*
X57309071Y-171711691D01*
X57278833Y-171711691D01*
X57254643Y-171705643D01*
X57242548Y-171699595D01*
X57236500Y-171693548D01*
X57230452Y-171681452D01*
X57357452Y-171518167D02*
X57357452Y-171590739D01*
X57357452Y-171554453D02*
X57230452Y-171554453D01*
X57248595Y-171566548D01*
X57260690Y-171578643D01*
X57266738Y-171590739D01*
X57230452Y-171409310D02*
X57230452Y-171433501D01*
X57236500Y-171445596D01*
X57242548Y-171451644D01*
X57260690Y-171463739D01*
X57284881Y-171469787D01*
X57333262Y-171469787D01*
X57345357Y-171463739D01*
X57351405Y-171457691D01*
X57357452Y-171445596D01*
X57357452Y-171421406D01*
X57351405Y-171409310D01*
X57345357Y-171403263D01*
X57333262Y-171397215D01*
X57303024Y-171397215D01*
X57290929Y-171403263D01*
X57284881Y-171409310D01*
X57278833Y-171421406D01*
X57278833Y-171445596D01*
X57284881Y-171457691D01*
X57290929Y-171463739D01*
X57303024Y-171469787D01*
X57321167Y-171252073D02*
X57321167Y-171191596D01*
X57357452Y-171264168D02*
X57230452Y-171221834D01*
X57357452Y-171179501D01*
X57351405Y-171082739D02*
X57357452Y-171094835D01*
X57357452Y-171119025D01*
X57351405Y-171131120D01*
X57345357Y-171137168D01*
X57333262Y-171143216D01*
X57296976Y-171143216D01*
X57284881Y-171137168D01*
X57278833Y-171131120D01*
X57272786Y-171119025D01*
X57272786Y-171094835D01*
X57278833Y-171082739D01*
X57351405Y-170973882D02*
X57357452Y-170985978D01*
X57357452Y-171010168D01*
X57351405Y-171022263D01*
X57345357Y-171028311D01*
X57333262Y-171034359D01*
X57296976Y-171034359D01*
X57284881Y-171028311D01*
X57278833Y-171022263D01*
X57272786Y-171010168D01*
X57272786Y-170985978D01*
X57278833Y-170973882D01*
X57351405Y-170871073D02*
X57357452Y-170883168D01*
X57357452Y-170907359D01*
X57351405Y-170919454D01*
X57339310Y-170925502D01*
X57290929Y-170925502D01*
X57278833Y-170919454D01*
X57272786Y-170907359D01*
X57272786Y-170883168D01*
X57278833Y-170871073D01*
X57290929Y-170865025D01*
X57303024Y-170865025D01*
X57315119Y-170925502D01*
X57357452Y-170792454D02*
X57351405Y-170804549D01*
X57339310Y-170810597D01*
X57230452Y-170810597D01*
X57351405Y-170695692D02*
X57357452Y-170707787D01*
X57357452Y-170731978D01*
X57351405Y-170744073D01*
X57339310Y-170750121D01*
X57290929Y-170750121D01*
X57278833Y-170744073D01*
X57272786Y-170731978D01*
X57272786Y-170707787D01*
X57278833Y-170695692D01*
X57290929Y-170689644D01*
X57303024Y-170689644D01*
X57315119Y-170750121D01*
X57357452Y-170635216D02*
X57272786Y-170635216D01*
X57296976Y-170635216D02*
X57284881Y-170629168D01*
X57278833Y-170623121D01*
X57272786Y-170611025D01*
X57272786Y-170598930D01*
X57357452Y-170502168D02*
X57290929Y-170502168D01*
X57278833Y-170508216D01*
X57272786Y-170520311D01*
X57272786Y-170544502D01*
X57278833Y-170556597D01*
X57351405Y-170502168D02*
X57357452Y-170514264D01*
X57357452Y-170544502D01*
X57351405Y-170556597D01*
X57339310Y-170562645D01*
X57327214Y-170562645D01*
X57315119Y-170556597D01*
X57309071Y-170544502D01*
X57309071Y-170514264D01*
X57303024Y-170502168D01*
X57272786Y-170459835D02*
X57272786Y-170411454D01*
X57230452Y-170441692D02*
X57339310Y-170441692D01*
X57351405Y-170435644D01*
X57357452Y-170423549D01*
X57357452Y-170411454D01*
X57351405Y-170320740D02*
X57357452Y-170332835D01*
X57357452Y-170357026D01*
X57351405Y-170369121D01*
X57339310Y-170375169D01*
X57290929Y-170375169D01*
X57278833Y-170369121D01*
X57272786Y-170357026D01*
X57272786Y-170332835D01*
X57278833Y-170320740D01*
X57290929Y-170314692D01*
X57303024Y-170314692D01*
X57315119Y-170375169D01*
X57357452Y-170205835D02*
X57230452Y-170205835D01*
X57351405Y-170205835D02*
X57357452Y-170217931D01*
X57357452Y-170242121D01*
X57351405Y-170254216D01*
X57345357Y-170260264D01*
X57333262Y-170266312D01*
X57296976Y-170266312D01*
X57284881Y-170260264D01*
X57278833Y-170254216D01*
X57272786Y-170242121D01*
X57272786Y-170217931D01*
X57278833Y-170205835D01*
X57357452Y-170048597D02*
X57230452Y-170048597D01*
X57230452Y-170018359D01*
X57236500Y-170000216D01*
X57248595Y-169988121D01*
X57260690Y-169982073D01*
X57284881Y-169976025D01*
X57303024Y-169976025D01*
X57327214Y-169982073D01*
X57339310Y-169988121D01*
X57351405Y-170000216D01*
X57357452Y-170018359D01*
X57357452Y-170048597D01*
X57351405Y-169873216D02*
X57357452Y-169885311D01*
X57357452Y-169909502D01*
X57351405Y-169921597D01*
X57339310Y-169927645D01*
X57290929Y-169927645D01*
X57278833Y-169921597D01*
X57272786Y-169909502D01*
X57272786Y-169885311D01*
X57278833Y-169873216D01*
X57290929Y-169867168D01*
X57303024Y-169867168D01*
X57315119Y-169927645D01*
X57351405Y-169818788D02*
X57357452Y-169806692D01*
X57357452Y-169782502D01*
X57351405Y-169770407D01*
X57339310Y-169764359D01*
X57333262Y-169764359D01*
X57321167Y-169770407D01*
X57315119Y-169782502D01*
X57315119Y-169800645D01*
X57309071Y-169812740D01*
X57296976Y-169818788D01*
X57290929Y-169818788D01*
X57278833Y-169812740D01*
X57272786Y-169800645D01*
X57272786Y-169782502D01*
X57278833Y-169770407D01*
X57357452Y-169709930D02*
X57272786Y-169709930D01*
X57230452Y-169709930D02*
X57236500Y-169715978D01*
X57242548Y-169709930D01*
X57236500Y-169703882D01*
X57230452Y-169709930D01*
X57242548Y-169709930D01*
X57272786Y-169595025D02*
X57375595Y-169595025D01*
X57387690Y-169601073D01*
X57393738Y-169607121D01*
X57399786Y-169619216D01*
X57399786Y-169637359D01*
X57393738Y-169649454D01*
X57351405Y-169595025D02*
X57357452Y-169607121D01*
X57357452Y-169631311D01*
X57351405Y-169643406D01*
X57345357Y-169649454D01*
X57333262Y-169655502D01*
X57296976Y-169655502D01*
X57284881Y-169649454D01*
X57278833Y-169643406D01*
X57272786Y-169631311D01*
X57272786Y-169607121D01*
X57278833Y-169595025D01*
X57272786Y-169534549D02*
X57357452Y-169534549D01*
X57284881Y-169534549D02*
X57278833Y-169528501D01*
X57272786Y-169516406D01*
X57272786Y-169498263D01*
X57278833Y-169486168D01*
X57290929Y-169480120D01*
X57357452Y-169480120D01*
X57351405Y-169425692D02*
X57357452Y-169413596D01*
X57357452Y-169389406D01*
X57351405Y-169377311D01*
X57339310Y-169371263D01*
X57333262Y-169371263D01*
X57321167Y-169377311D01*
X57315119Y-169389406D01*
X57315119Y-169407549D01*
X57309071Y-169419644D01*
X57296976Y-169425692D01*
X57290929Y-169425692D01*
X57278833Y-169419644D01*
X57272786Y-169407549D01*
X57272786Y-169389406D01*
X57278833Y-169377311D01*
X57345357Y-169316834D02*
X57351405Y-169310786D01*
X57357452Y-169316834D01*
X57351405Y-169322882D01*
X57345357Y-169316834D01*
X57357452Y-169316834D01*
X57321167Y-169165644D02*
X57321167Y-169105167D01*
X57357452Y-169177739D02*
X57230452Y-169135405D01*
X57357452Y-169093072D01*
X57357452Y-169032596D02*
X57351405Y-169044691D01*
X57339310Y-169050739D01*
X57230452Y-169050739D01*
X57357452Y-168966072D02*
X57351405Y-168978167D01*
X57339310Y-168984215D01*
X57230452Y-168984215D01*
X57357452Y-168820929D02*
X57272786Y-168820929D01*
X57296976Y-168820929D02*
X57284881Y-168814881D01*
X57278833Y-168808834D01*
X57272786Y-168796738D01*
X57272786Y-168784643D01*
X57357452Y-168742310D02*
X57272786Y-168742310D01*
X57230452Y-168742310D02*
X57236500Y-168748358D01*
X57242548Y-168742310D01*
X57236500Y-168736262D01*
X57230452Y-168742310D01*
X57242548Y-168742310D01*
X57272786Y-168627405D02*
X57375595Y-168627405D01*
X57387690Y-168633453D01*
X57393738Y-168639501D01*
X57399786Y-168651596D01*
X57399786Y-168669739D01*
X57393738Y-168681834D01*
X57351405Y-168627405D02*
X57357452Y-168639501D01*
X57357452Y-168663691D01*
X57351405Y-168675786D01*
X57345357Y-168681834D01*
X57333262Y-168687882D01*
X57296976Y-168687882D01*
X57284881Y-168681834D01*
X57278833Y-168675786D01*
X57272786Y-168663691D01*
X57272786Y-168639501D01*
X57278833Y-168627405D01*
X57357452Y-168566929D02*
X57230452Y-168566929D01*
X57357452Y-168512500D02*
X57290929Y-168512500D01*
X57278833Y-168518548D01*
X57272786Y-168530643D01*
X57272786Y-168548786D01*
X57278833Y-168560881D01*
X57284881Y-168566929D01*
X57272786Y-168470167D02*
X57272786Y-168421786D01*
X57230452Y-168452024D02*
X57339310Y-168452024D01*
X57351405Y-168445976D01*
X57357452Y-168433881D01*
X57357452Y-168421786D01*
X57351405Y-168385501D02*
X57357452Y-168373405D01*
X57357452Y-168349215D01*
X57351405Y-168337120D01*
X57339310Y-168331072D01*
X57333262Y-168331072D01*
X57321167Y-168337120D01*
X57315119Y-168349215D01*
X57315119Y-168367358D01*
X57309071Y-168379453D01*
X57296976Y-168385501D01*
X57290929Y-168385501D01*
X57278833Y-168379453D01*
X57272786Y-168367358D01*
X57272786Y-168349215D01*
X57278833Y-168337120D01*
X57357452Y-168179881D02*
X57272786Y-168179881D01*
X57296976Y-168179881D02*
X57284881Y-168173833D01*
X57278833Y-168167786D01*
X57272786Y-168155690D01*
X57272786Y-168143595D01*
X57351405Y-168052881D02*
X57357452Y-168064976D01*
X57357452Y-168089167D01*
X57351405Y-168101262D01*
X57339310Y-168107310D01*
X57290929Y-168107310D01*
X57278833Y-168101262D01*
X57272786Y-168089167D01*
X57272786Y-168064976D01*
X57278833Y-168052881D01*
X57290929Y-168046833D01*
X57303024Y-168046833D01*
X57315119Y-168107310D01*
X57351405Y-167998453D02*
X57357452Y-167986357D01*
X57357452Y-167962167D01*
X57351405Y-167950072D01*
X57339310Y-167944024D01*
X57333262Y-167944024D01*
X57321167Y-167950072D01*
X57315119Y-167962167D01*
X57315119Y-167980310D01*
X57309071Y-167992405D01*
X57296976Y-167998453D01*
X57290929Y-167998453D01*
X57278833Y-167992405D01*
X57272786Y-167980310D01*
X57272786Y-167962167D01*
X57278833Y-167950072D01*
X57351405Y-167841214D02*
X57357452Y-167853309D01*
X57357452Y-167877500D01*
X57351405Y-167889595D01*
X57339310Y-167895643D01*
X57290929Y-167895643D01*
X57278833Y-167889595D01*
X57272786Y-167877500D01*
X57272786Y-167853309D01*
X57278833Y-167841214D01*
X57290929Y-167835166D01*
X57303024Y-167835166D01*
X57315119Y-167895643D01*
X57357452Y-167780738D02*
X57272786Y-167780738D01*
X57296976Y-167780738D02*
X57284881Y-167774690D01*
X57278833Y-167768643D01*
X57272786Y-167756547D01*
X57272786Y-167744452D01*
X57272786Y-167714214D02*
X57357452Y-167683976D01*
X57272786Y-167653738D01*
X57351405Y-167556976D02*
X57357452Y-167569071D01*
X57357452Y-167593262D01*
X57351405Y-167605357D01*
X57339310Y-167611405D01*
X57290929Y-167611405D01*
X57278833Y-167605357D01*
X57272786Y-167593262D01*
X57272786Y-167569071D01*
X57278833Y-167556976D01*
X57290929Y-167550928D01*
X57303024Y-167550928D01*
X57315119Y-167611405D01*
X57357452Y-167442071D02*
X57230452Y-167442071D01*
X57351405Y-167442071D02*
X57357452Y-167454167D01*
X57357452Y-167478357D01*
X57351405Y-167490452D01*
X57345357Y-167496500D01*
X57333262Y-167502548D01*
X57296976Y-167502548D01*
X57284881Y-167496500D01*
X57278833Y-167490452D01*
X57272786Y-167478357D01*
X57272786Y-167454167D01*
X57278833Y-167442071D01*
X57345357Y-167381595D02*
X57351405Y-167375547D01*
X57357452Y-167381595D01*
X57351405Y-167387643D01*
X57345357Y-167381595D01*
X57357452Y-167381595D01*
M02*
