M48
;DRILL file {KiCad 4.0.2-stable} date 2016-05-08 01:02:47
;FORMAT={-:-/ absolute / inch / decimal}
FMAT,2
INCH,TZ
T1C0.010
T2C0.012
T3C0.016
%
G90
G05
M72
T1
X2.5098Y-6.4626
T2
X1.3642Y-6.6299
X1.3661Y-6.5335
X1.6102Y-6.4587
X1.6634Y-6.6594
X1.8465Y-6.9252
X1.874Y-6.7303
X1.9311Y-6.7815
X1.9862Y-6.8622
X2.1299Y-6.9252
X2.189Y-6.937
X2.2205Y-6.8504
X2.2224Y-6.9173
X2.2441Y-6.5906
X2.2913Y-6.5354
X2.3012Y-6.874
X2.3228Y-6.4921
X2.3307Y-6.7972
X2.3661Y-6.5394
X2.4055Y-6.8957
X2.437Y-6.626
X2.437Y-6.9409
X2.4862Y-6.748
X2.5079Y-6.6181
X2.5157Y-6.9587
X2.5551Y-6.5709
X2.6043Y-6.689
X2.6063Y-6.9291
X2.6181Y-6.6496
X2.6319Y-6.9016
X2.7126Y-6.7047
X2.7224Y-6.8228
X2.7303Y-6.626
X2.7362Y-6.685
X2.7835Y-6.8071
X2.8071Y-6.5669
X2.8091Y-6.9252
T3
X1.3661Y-6.7421
X1.3661Y-6.8484
X1.3661Y-6.9508
X1.874Y-6.5276
X1.876Y-6.622
X2.122Y-6.5748
X2.185Y-6.8071
T3
X1.5709Y-6.5492G85X1.5276Y-6.5492
G05
X1.5709Y-6.8465G85X1.5276Y-6.8465
G05
T0
M30
