G04 #@! TF.FileFunction,Copper,L1,Top,Signal*
%FSLAX46Y46*%
G04 Gerber Fmt 4.6, Leading zero omitted, Abs format (unit mm)*
G04 Created by KiCad (PCBNEW 4.0.2-stable) date 2016-05-09 23:30:04*
%MOMM*%
G01*
G04 APERTURE LIST*
%ADD10C,0.020000*%
%ADD11R,0.200000X0.899160*%
%ADD12R,0.899160X0.200000*%
%ADD13R,1.400000X0.400000*%
%ADD14R,0.400000X0.600000*%
%ADD15R,0.800000X0.750000*%
%ADD16R,0.600000X0.400000*%
%ADD17R,0.750000X0.800000*%
%ADD18O,2.700000X2.000000*%
%ADD19R,1.524000X0.800000*%
%ADD20R,1.400000X2.200000*%
%ADD21R,2.230000X1.800000*%
%ADD22R,1.800000X2.230000*%
%ADD23R,0.260000X0.787400*%
%ADD24R,0.787400X0.304800*%
%ADD25R,4.300000X1.800000*%
%ADD26C,0.400000*%
%ADD27C,0.600000*%
%ADD28C,0.350000*%
%ADD29C,0.250000*%
%ADD30C,0.200000*%
%ADD31C,0.700000*%
%ADD32C,0.400000*%
%ADD33C,0.500000*%
%ADD34C,0.800000*%
%ADD35C,0.300000*%
G04 APERTURE END LIST*
D10*
D11*
X64550000Y-174150000D03*
X65000000Y-174150000D03*
X65450000Y-174148600D03*
X65900000Y-174150000D03*
X66350000Y-174150000D03*
D12*
X66950000Y-173550000D03*
X66950000Y-173100000D03*
X66948600Y-172650000D03*
X66950000Y-172200000D03*
X66950000Y-171750000D03*
D11*
X66350000Y-171150000D03*
X65900000Y-171150000D03*
X65450000Y-171151400D03*
X65000000Y-171150000D03*
X64550000Y-171150000D03*
D12*
X63950000Y-171750000D03*
X63950000Y-172200000D03*
X63951400Y-172650000D03*
X63950000Y-173100000D03*
X63950000Y-173550000D03*
D13*
X52800000Y-176675000D03*
X52800000Y-176025000D03*
X52800000Y-175375000D03*
X52800000Y-174725000D03*
X48400000Y-174725000D03*
X48400000Y-175375000D03*
X48400000Y-176025000D03*
X48400000Y-176675000D03*
D14*
X60850000Y-165800000D03*
X61750000Y-165800000D03*
D15*
X56050000Y-164600000D03*
X54550000Y-164600000D03*
D16*
X65300000Y-169150000D03*
X65300000Y-168250000D03*
D15*
X59250000Y-164300000D03*
X60750000Y-164300000D03*
D16*
X61100000Y-167350000D03*
X61100000Y-168250000D03*
X54700000Y-175750000D03*
X54700000Y-176650000D03*
D14*
X51150000Y-173400000D03*
X50250000Y-173400000D03*
D16*
X61200000Y-171450000D03*
X61200000Y-172350000D03*
X67800000Y-167500000D03*
X67800000Y-168400000D03*
D14*
X66850000Y-170050000D03*
X67750000Y-170050000D03*
D17*
X69000000Y-172150000D03*
X69000000Y-173650000D03*
D18*
X39350000Y-166350000D03*
X39350000Y-173900000D03*
D16*
X57700000Y-164650000D03*
X57700000Y-165550000D03*
D19*
X71300000Y-169400000D03*
X71300000Y-170600000D03*
X71300000Y-171800000D03*
D20*
X34450000Y-171150000D03*
X34450000Y-173950000D03*
X34450000Y-176550000D03*
X34450000Y-168550000D03*
X34450000Y-165900000D03*
X34450000Y-163300000D03*
D21*
X48350000Y-165290000D03*
X48350000Y-168210000D03*
D22*
X65590000Y-164650000D03*
X68510000Y-164650000D03*
D10*
G36*
X43088112Y-175369582D02*
X42395206Y-174969532D01*
X42795256Y-174276626D01*
X43488162Y-174676676D01*
X43088112Y-175369582D01*
X43088112Y-175369582D01*
G37*
G36*
X44038112Y-173724134D02*
X43345206Y-173324084D01*
X43745256Y-172631178D01*
X44438162Y-173031228D01*
X44038112Y-173724134D01*
X44038112Y-173724134D01*
G37*
G36*
X41831944Y-173547368D02*
X41139038Y-173147318D01*
X41539088Y-172454412D01*
X42231994Y-172854462D01*
X41831944Y-173547368D01*
X41831944Y-173547368D01*
G37*
G36*
X44338162Y-167468772D02*
X43645256Y-167868822D01*
X43245206Y-167175916D01*
X43938112Y-166775866D01*
X44338162Y-167468772D01*
X44338162Y-167468772D01*
G37*
G36*
X43388162Y-165823324D02*
X42695256Y-166223374D01*
X42295206Y-165530468D01*
X42988112Y-165130418D01*
X43388162Y-165823324D01*
X43388162Y-165823324D01*
G37*
G36*
X42131994Y-167645538D02*
X41439088Y-168045588D01*
X41039038Y-167352682D01*
X41731944Y-166952632D01*
X42131994Y-167645538D01*
X42131994Y-167645538D01*
G37*
D23*
X55049999Y-171827401D03*
X55550001Y-171827401D03*
X56050000Y-171827401D03*
X56549999Y-171827401D03*
X57050000Y-171827401D03*
X57550000Y-171827401D03*
X58050001Y-171827401D03*
X58550000Y-171827401D03*
X59049999Y-171827401D03*
X59550001Y-171827401D03*
D24*
X60027401Y-170850001D03*
X60027401Y-169349999D03*
D23*
X59550001Y-168372599D03*
X59049999Y-168372599D03*
X58550000Y-168372599D03*
X58050001Y-168372599D03*
X57550000Y-168372599D03*
X57050000Y-168372599D03*
X56549999Y-168372599D03*
X56050000Y-168372599D03*
X55550001Y-168372599D03*
X55049999Y-168372599D03*
D24*
X54572599Y-169349999D03*
X54572599Y-170850001D03*
D25*
X57300000Y-170100000D03*
D26*
X50450000Y-174300000D03*
X34700000Y-165950000D03*
X64900000Y-166900000D03*
X56450000Y-175700000D03*
X59000000Y-164900000D03*
X54100000Y-175900000D03*
X71300000Y-166800000D03*
X61900000Y-168300000D03*
X60100000Y-166100000D03*
X70450000Y-167500000D03*
D27*
X42250000Y-169150000D03*
D26*
X49050000Y-172250000D03*
X71350000Y-175900000D03*
D28*
X63750000Y-164150000D03*
D26*
X47600000Y-165800000D03*
X69150000Y-173300000D03*
X69350000Y-168300000D03*
X57000000Y-167400000D03*
X59200000Y-172600000D03*
X47650000Y-168200000D03*
X66200000Y-176000000D03*
X61900000Y-176300000D03*
X69500000Y-169800000D03*
X63150000Y-171400000D03*
X61100000Y-175150000D03*
X58450000Y-174600000D03*
X56400000Y-174000000D03*
X47600000Y-170950000D03*
X46900000Y-175900000D03*
X34700000Y-171250000D03*
X55500000Y-172900000D03*
X34700000Y-173950000D03*
X53900000Y-167000000D03*
X66150000Y-169900000D03*
X63900000Y-176750000D03*
X40900000Y-164050000D03*
X55600000Y-176200000D03*
X34650000Y-168400000D03*
X63700000Y-168100000D03*
X34700000Y-176550000D03*
X66850000Y-175300000D03*
X58200000Y-166000000D03*
X70700000Y-172900000D03*
X66500000Y-168900000D03*
X68900000Y-170300000D03*
X67000000Y-166200000D03*
X64350000Y-167500000D03*
D29*
X41200000Y-167784626D02*
X41135516Y-167849110D01*
X41135516Y-167849110D02*
X41135516Y-167985516D01*
X65300000Y-168250000D02*
X65300000Y-167300000D01*
X65300000Y-167300000D02*
X64900000Y-166900000D01*
X61100000Y-167350000D02*
X61200000Y-167350000D01*
X61200000Y-167350000D02*
X61650000Y-166900000D01*
X63950000Y-166900000D02*
X64900000Y-166900000D01*
X61650000Y-166900000D02*
X63950000Y-166900000D01*
D30*
X66950000Y-172200000D02*
X68950000Y-172200000D01*
X68950000Y-172200000D02*
X69000000Y-172150000D01*
X68898780Y-172251220D02*
X69000000Y-172150000D01*
D29*
X42000000Y-163250000D02*
X43100000Y-163250000D01*
X34700000Y-165950000D02*
X35250000Y-165950000D01*
X37950000Y-163250000D02*
X35250000Y-165950000D01*
X42000000Y-163250000D02*
X37950000Y-163250000D01*
X49400000Y-176675000D02*
X49775000Y-176675000D01*
X50450000Y-176000000D02*
X50450000Y-174300000D01*
X49775000Y-176675000D02*
X50450000Y-176000000D01*
X48400000Y-176675000D02*
X49400000Y-176675000D01*
X49400000Y-176675000D02*
X49425000Y-176675000D01*
X68898780Y-172251220D02*
X69000000Y-172150000D01*
X68510000Y-164650000D02*
X69150000Y-164650000D01*
X69150000Y-164650000D02*
X71300000Y-166800000D01*
X68900000Y-169400000D02*
X69250000Y-169050000D01*
X68600000Y-171350000D02*
X68300000Y-171050000D01*
X68300000Y-171050000D02*
X68300000Y-170000000D01*
X68300000Y-170000000D02*
X68900000Y-169400000D01*
X69000000Y-172100000D02*
X68600000Y-171700000D01*
X68600000Y-171700000D02*
X68600000Y-171350000D01*
X70500000Y-169400000D02*
X71300000Y-169400000D01*
X70150000Y-169050000D02*
X70500000Y-169400000D01*
X69250000Y-169050000D02*
X70150000Y-169050000D01*
X69000000Y-172150000D02*
X69000000Y-172100000D01*
X71300000Y-167200000D02*
X71300000Y-169400000D01*
X68900000Y-172250000D02*
X69000000Y-172150000D01*
X54700000Y-175750000D02*
X54750000Y-175750000D01*
X54750000Y-175750000D02*
X54900000Y-175600000D01*
X54900000Y-175600000D02*
X56450000Y-175600000D01*
X56450000Y-175600000D02*
X56450000Y-175700000D01*
X59000000Y-164900000D02*
X59049999Y-164900000D01*
X59049999Y-164900000D02*
X59250000Y-164699999D01*
X59250000Y-164300000D02*
X59250000Y-164699999D01*
X59049999Y-168372599D02*
X59049999Y-164500001D01*
X59049999Y-164500001D02*
X59250000Y-164300000D01*
X61100000Y-167350000D02*
X59450000Y-167350000D01*
X59049999Y-167750001D02*
X59049999Y-168372599D01*
X59450000Y-167350000D02*
X59049999Y-167750001D01*
X54700000Y-175750000D02*
X54250000Y-175750000D01*
X54250000Y-175750000D02*
X54100000Y-175900000D01*
X59209999Y-164340001D02*
X59250000Y-164300000D01*
X71300000Y-166800000D02*
X71300000Y-167200000D01*
X71300000Y-166800000D02*
X71300000Y-167200000D01*
X34700000Y-166000000D02*
X34700000Y-165950000D01*
X42685382Y-174727897D02*
X42700000Y-174000000D01*
X43800000Y-163950000D02*
X43800000Y-167086279D01*
X43100000Y-163250000D02*
X43800000Y-163950000D01*
X43800000Y-167086279D02*
X43624382Y-167261897D01*
X43624382Y-171475618D02*
X43624382Y-167261897D01*
X42700000Y-172400000D02*
X43624382Y-171475618D01*
X42700000Y-173600000D02*
X42700000Y-172400000D01*
X42700000Y-174000000D02*
X42700000Y-173600000D01*
X60850000Y-165800000D02*
X60400000Y-165800000D01*
X61850000Y-168250000D02*
X61100000Y-168250000D01*
X61900000Y-168300000D02*
X61850000Y-168250000D01*
X60400000Y-165800000D02*
X60100000Y-166100000D01*
X60750000Y-164300000D02*
X60750000Y-165700000D01*
X60750000Y-165700000D02*
X60850000Y-165800000D01*
X59550001Y-168372599D02*
X60977401Y-168372599D01*
X60977401Y-168372599D02*
X61100000Y-168250000D01*
D30*
X61100000Y-168250000D02*
X61070000Y-168220000D01*
D29*
X58050001Y-168372599D02*
X58050001Y-167050001D01*
X56050000Y-165050000D02*
X56050000Y-164600000D01*
X58050001Y-167050001D02*
X56050000Y-165050000D01*
X56050001Y-164600001D02*
X56050000Y-164600000D01*
D30*
X67800000Y-167500000D02*
X67800000Y-166750000D01*
X70450000Y-167050000D02*
X70450000Y-167500000D01*
X70150000Y-166750000D02*
X70450000Y-167050000D01*
X67800000Y-166750000D02*
X70150000Y-166750000D01*
D29*
X42300000Y-169150000D02*
X42300000Y-171886406D01*
X42300000Y-171886406D02*
X41235516Y-172950890D01*
X41235516Y-172950890D02*
X40899110Y-172950890D01*
X41433316Y-168333316D02*
X42250000Y-169150000D01*
X41433316Y-167500380D02*
X41433316Y-168333316D01*
D30*
X66948600Y-172650000D02*
X68000000Y-172650000D01*
X68000000Y-172650000D02*
X68250000Y-172900000D01*
D29*
X50250000Y-173400000D02*
X50200000Y-173400000D01*
X50200000Y-173400000D02*
X49050000Y-172250000D01*
X68000000Y-172650000D02*
X69000000Y-173650000D01*
X71300000Y-171800000D02*
X71300000Y-175850000D01*
X71300000Y-175850000D02*
X71350000Y-175900000D01*
X64000000Y-165800000D02*
X64000000Y-164400000D01*
X64000000Y-164400000D02*
X63750000Y-164150000D01*
X47600000Y-165800000D02*
X48110000Y-165290000D01*
X48110000Y-165290000D02*
X48350000Y-165290000D01*
X65476000Y-164764000D02*
X65590000Y-164650000D01*
X65590000Y-164650000D02*
X65590000Y-164686000D01*
X65590000Y-164686000D02*
X64476000Y-165800000D01*
X62000000Y-165800000D02*
X64000000Y-165800000D01*
X64000000Y-165800000D02*
X64476000Y-165800000D01*
X62000000Y-165800000D02*
X62400000Y-165800000D01*
D31*
X54550000Y-164600000D02*
X49040000Y-164600000D01*
X49040000Y-164600000D02*
X48350000Y-165290000D01*
D29*
X54572599Y-170850001D02*
X50449999Y-170850001D01*
X48800000Y-172500000D02*
X48800000Y-173500000D01*
X50449999Y-170850001D02*
X48800000Y-172500000D01*
X48800000Y-173500000D02*
X48900000Y-173400000D01*
X60027401Y-170850001D02*
X58050001Y-170850001D01*
X58050001Y-170850001D02*
X57300000Y-170100000D01*
X57300000Y-170100000D02*
X59277400Y-170100000D01*
X54572599Y-170850001D02*
X54572599Y-169349999D01*
X49300000Y-173400000D02*
X48900000Y-173400000D01*
X48900000Y-173400000D02*
X48400000Y-173900000D01*
X48400000Y-173900000D02*
X48400000Y-174725000D01*
X67800000Y-167500000D02*
X68550000Y-167500000D01*
X69150000Y-173300000D02*
X69000000Y-173450000D01*
D30*
X68550000Y-167500000D02*
X69350000Y-168300000D01*
D29*
X69000000Y-173450000D02*
X69000000Y-173650000D01*
X67750000Y-167450000D02*
X67800000Y-167500000D01*
X69000000Y-173650000D02*
X71050000Y-173650000D01*
X71300000Y-173400000D02*
X71300000Y-171800000D01*
X71050000Y-173650000D02*
X71300000Y-173400000D01*
X68250000Y-172900000D02*
X69150000Y-173800000D01*
X57700000Y-164650000D02*
X57700000Y-164100000D01*
X61750000Y-163650000D02*
X61750000Y-165800000D01*
X61500000Y-163400000D02*
X61750000Y-163650000D01*
X58400000Y-163400000D02*
X61500000Y-163400000D01*
X57700000Y-164100000D02*
X58400000Y-163400000D01*
X61750000Y-165800000D02*
X62000000Y-165800000D01*
X57700000Y-164650000D02*
X57700000Y-164300000D01*
X57700000Y-164300000D02*
X57000000Y-163600000D01*
X57000000Y-163600000D02*
X55100000Y-163600000D01*
X55100000Y-163600000D02*
X54550000Y-164150000D01*
X54550000Y-164150000D02*
X54550000Y-164600000D01*
X60027401Y-170850001D02*
X54572599Y-170850001D01*
X54572599Y-169349999D02*
X60027401Y-169349999D01*
X60027401Y-170850001D02*
X60027401Y-169349999D01*
X61750000Y-165800000D02*
X61750000Y-165925000D01*
X54550000Y-164600000D02*
X54200000Y-164600000D01*
X49250000Y-165450000D02*
X49124000Y-165576000D01*
X49124000Y-165576000D02*
X48400000Y-165450000D01*
D31*
X47774000Y-165226000D02*
X48400000Y-165450000D01*
X48566000Y-165284000D02*
X48400000Y-165450000D01*
D30*
X59049999Y-171827401D02*
X59049999Y-172499999D01*
X59049999Y-172499999D02*
X59200000Y-172600000D01*
X59049999Y-172499999D02*
X59200000Y-172600000D01*
D32*
X57000000Y-167400000D02*
X57050000Y-167350000D01*
X57050000Y-167050000D02*
X57050000Y-167350000D01*
D31*
X47650000Y-168200000D02*
X50340000Y-168210000D01*
X55800000Y-165800000D02*
X57050000Y-167050000D01*
X55800000Y-165800000D02*
X51600000Y-165800000D01*
X50800000Y-166600000D02*
X51600000Y-165800000D01*
X50800000Y-167750000D02*
X50800000Y-166600000D01*
X50340000Y-168210000D02*
X50800000Y-167750000D01*
D29*
X49300000Y-167600000D02*
X48726000Y-168274000D01*
X48726000Y-168274000D02*
X47650000Y-168190000D01*
X48350000Y-167600000D02*
X48350000Y-167750000D01*
X48350000Y-167750000D02*
X47650000Y-168190000D01*
X49074000Y-167550000D02*
X47650000Y-168190000D01*
D31*
X57050000Y-168372599D02*
X57050000Y-167050000D01*
D33*
X57100000Y-168322599D02*
X57050000Y-168372599D01*
D29*
X56534999Y-168467599D02*
X57035000Y-168467599D01*
X57035000Y-168467599D02*
X57535000Y-168467599D01*
D30*
X65000000Y-174150000D02*
X65000000Y-175350000D01*
X65000000Y-175350000D02*
X64650000Y-175700000D01*
X64650000Y-175700000D02*
X64400000Y-175700000D01*
X57000000Y-174600000D02*
X56100000Y-174600000D01*
X56100000Y-174600000D02*
X54900000Y-173400000D01*
D29*
X54800000Y-173400000D02*
X54900000Y-173400000D01*
D30*
X54800000Y-173400000D02*
X51150000Y-173400000D01*
X58100000Y-175700000D02*
X57000000Y-174600000D01*
X62999998Y-175700000D02*
X58100000Y-175700000D01*
X64400000Y-175700000D02*
X64300000Y-175700000D01*
X64300000Y-175700000D02*
X62999998Y-175700000D01*
D29*
X52800000Y-175375000D02*
X51775000Y-175375000D01*
X51150000Y-174750000D02*
X51150000Y-173400000D01*
D30*
X51250000Y-173400000D02*
X51150000Y-173300000D01*
D29*
X52800000Y-176025000D02*
X52800000Y-175375000D01*
X51500000Y-175100000D02*
X51150000Y-174750000D01*
X51775000Y-175375000D02*
X51500000Y-175100000D01*
D30*
X65450000Y-174148600D02*
X65450000Y-176150000D01*
X65450000Y-176150000D02*
X64950000Y-176650000D01*
X55300000Y-177200000D02*
X55600000Y-177500000D01*
X64400000Y-177200000D02*
X64950000Y-176650000D01*
X55300000Y-177200000D02*
X54750000Y-176650000D01*
X64100000Y-177500000D02*
X64400000Y-177200000D01*
X55600000Y-177500000D02*
X64100000Y-177500000D01*
X65450000Y-176050000D02*
X65450000Y-176150000D01*
D29*
X54700000Y-176650000D02*
X54750000Y-176650000D01*
X52800000Y-176675000D02*
X54675000Y-176675000D01*
X54675000Y-176675000D02*
X54700000Y-176650000D01*
X52800000Y-176675000D02*
X52800000Y-176700000D01*
D30*
X65900000Y-174150000D02*
X65900000Y-175700000D01*
X65900000Y-175700000D02*
X66200000Y-176000000D01*
D29*
X66150000Y-175950000D02*
X66200000Y-176000000D01*
D30*
X55850002Y-175050002D02*
X56650002Y-175050002D01*
X55525000Y-174725000D02*
X55850002Y-175050002D01*
X55525000Y-174725000D02*
X52800000Y-174725000D01*
X57900000Y-176300000D02*
X61900000Y-176300000D01*
X56650002Y-175050002D02*
X57900000Y-176300000D01*
X57850000Y-174050000D02*
X58950000Y-174050000D01*
X63150000Y-173450000D02*
X62550000Y-174050000D01*
X57850000Y-174050000D02*
X57550000Y-173750000D01*
X57550000Y-173350000D02*
X57550000Y-173750000D01*
X57550000Y-171827401D02*
X57550000Y-173350000D01*
X63150000Y-173350000D02*
X63150000Y-171400000D01*
X63150000Y-173350000D02*
X63150000Y-173450000D01*
X62400002Y-174199998D02*
X62550000Y-174050000D01*
X59099998Y-174199998D02*
X62400002Y-174199998D01*
X58950000Y-174050000D02*
X59099998Y-174199998D01*
X63950000Y-171750000D02*
X63500000Y-171750000D01*
X63500000Y-171750000D02*
X63150000Y-171400000D01*
X69500000Y-169800000D02*
X70400000Y-170700000D01*
D29*
X71200000Y-170700000D02*
X70400000Y-170700000D01*
X71200000Y-170700000D02*
X71300000Y-170600000D01*
D30*
X61100000Y-175150000D02*
X60100000Y-175150000D01*
X64550000Y-174150000D02*
X64550000Y-174800000D01*
X58250000Y-175150000D02*
X57050000Y-173950000D01*
X57050000Y-173950000D02*
X57050000Y-171827401D01*
X64200000Y-175150000D02*
X60100000Y-175150000D01*
X60100000Y-175150000D02*
X58250000Y-175150000D01*
X64550000Y-174800000D02*
X64200000Y-175150000D01*
X63500000Y-174600000D02*
X58450000Y-174600000D01*
X63500000Y-174600000D02*
X63850000Y-174250000D01*
X63500000Y-174600000D02*
X63450000Y-174600000D01*
X63950000Y-174150000D02*
X63850000Y-174250000D01*
X63850000Y-174250000D02*
X63500000Y-174600000D01*
X63950000Y-174150000D02*
X63950000Y-173550000D01*
D29*
X56549999Y-171827401D02*
X56549999Y-173850001D01*
X56549999Y-173850001D02*
X56400000Y-174000000D01*
D30*
X58400000Y-173600000D02*
X59675000Y-173600000D01*
X58050001Y-173250001D02*
X58400000Y-173600000D01*
X62100000Y-173600000D02*
X62550000Y-173150000D01*
X58050001Y-171827401D02*
X58050001Y-173049999D01*
X62550000Y-170950000D02*
X62900000Y-170600000D01*
X62550000Y-173150000D02*
X62550000Y-170950000D01*
X64150000Y-170600000D02*
X64550000Y-171000000D01*
X64150000Y-170600000D02*
X62900000Y-170600000D01*
X58050001Y-173049999D02*
X58050001Y-173250001D01*
X61950000Y-173750000D02*
X62100000Y-173600000D01*
X59825000Y-173750000D02*
X61950000Y-173750000D01*
X59675000Y-173600000D02*
X59825000Y-173750000D01*
X64550000Y-171150000D02*
X64550000Y-171000000D01*
D29*
X48400000Y-175375000D02*
X47575000Y-175375000D01*
X47250000Y-175050000D02*
X47575000Y-175375000D01*
X47250000Y-171300000D02*
X47250000Y-175050000D01*
X47250000Y-171300000D02*
X47600000Y-170950000D01*
X48400000Y-176025000D02*
X47025000Y-176025000D01*
X47025000Y-176025000D02*
X46900000Y-175900000D01*
D31*
X39300000Y-166650000D02*
X37250000Y-166650000D01*
X36200000Y-169750000D02*
X34700000Y-171250000D01*
X36200000Y-167700000D02*
X36200000Y-169750000D01*
X37250000Y-166650000D02*
X36200000Y-167700000D01*
X55550001Y-171827401D02*
X55550001Y-172849999D01*
X55550001Y-172849999D02*
X55500000Y-172900000D01*
D29*
X56050000Y-171827401D02*
X55550001Y-171827401D01*
X55550001Y-171827401D02*
X55049999Y-171827401D01*
D31*
X38300000Y-166650000D02*
X39300000Y-166650000D01*
D30*
X59550001Y-171827401D02*
X59550001Y-172100001D01*
X59550001Y-172100001D02*
X59800000Y-172350000D01*
X59800000Y-172350000D02*
X61200000Y-172350000D01*
D29*
X59550000Y-171937400D02*
X59535001Y-171922401D01*
D31*
X55550001Y-168372599D02*
X55550001Y-167550001D01*
X55000000Y-167000000D02*
X53900000Y-167000000D01*
X55550001Y-167550001D02*
X55000000Y-167000000D01*
D29*
X55034999Y-168467599D02*
X55535001Y-168467599D01*
X56035000Y-168467599D02*
X55535001Y-168467599D01*
D34*
X34700000Y-173950000D02*
X38800000Y-173950000D01*
X38800000Y-173950000D02*
X39100000Y-174250000D01*
D33*
X38800000Y-173950000D02*
X39100000Y-174250000D01*
D29*
X38800000Y-173950000D02*
X39100000Y-174250000D01*
X38800000Y-173950000D02*
X39100000Y-174250000D01*
D30*
X66350000Y-171150000D02*
X66450000Y-171150000D01*
X66450000Y-171150000D02*
X66850000Y-170750000D01*
X66850000Y-170750000D02*
X66850000Y-170000000D01*
X66850000Y-170750000D02*
X66850000Y-170750000D01*
D35*
X42391684Y-166026896D02*
X42391684Y-165541684D01*
D30*
X65900000Y-171150000D02*
X65900000Y-170150000D01*
X63750000Y-176900000D02*
X63900000Y-176750000D01*
X63750000Y-176900000D02*
X63550000Y-176900000D01*
X65900000Y-170150000D02*
X66150000Y-169900000D01*
D29*
X42735382Y-165722103D02*
X42735382Y-165235382D01*
X42735382Y-165235382D02*
X42391684Y-164891684D01*
D35*
X42391684Y-164891684D02*
X42391684Y-164841684D01*
X42391684Y-164841684D02*
X41600000Y-164050000D01*
X41600000Y-164050000D02*
X40900000Y-164050000D01*
D30*
X63350000Y-176900000D02*
X63550000Y-176900000D01*
D29*
X55600000Y-176200000D02*
X55900000Y-176200000D01*
D30*
X55900000Y-176200000D02*
X56700000Y-176900000D01*
X56700000Y-176900000D02*
X63350000Y-176900000D01*
D29*
X63550000Y-176900000D02*
X63600000Y-176900000D01*
D35*
X34650000Y-168400000D02*
X34700000Y-168450000D01*
X34700000Y-168450000D02*
X34700000Y-168550000D01*
X34700000Y-168550000D02*
X34700000Y-168450000D01*
D30*
X65000000Y-171150000D02*
X65000000Y-170400000D01*
X63700000Y-169100000D02*
X63700000Y-168100000D01*
X65000000Y-170400000D02*
X63700000Y-169100000D01*
D29*
X42700000Y-176550000D02*
X43250000Y-176550000D01*
X34700000Y-176550000D02*
X42700000Y-176550000D01*
X43950000Y-173563721D02*
X43574382Y-173188103D01*
X43950000Y-175850000D02*
X43950000Y-173563721D01*
X43250000Y-176550000D02*
X43950000Y-175850000D01*
D30*
X66350000Y-174150000D02*
X66350000Y-174800000D01*
X66350000Y-174800000D02*
X66850000Y-175300000D01*
D29*
X66800000Y-175150000D02*
X66800000Y-175250000D01*
X66800000Y-175250000D02*
X66850000Y-175300000D01*
X58175000Y-166025000D02*
X57700000Y-165550000D01*
X58200000Y-166000000D02*
X58175000Y-166025000D01*
X58550000Y-168372599D02*
X58550000Y-166400000D01*
X58550000Y-166400000D02*
X57700000Y-165550000D01*
D30*
X65450000Y-171151400D02*
X65450000Y-169300000D01*
X65450000Y-169300000D02*
X65300000Y-169150000D01*
D29*
X69050002Y-170400000D02*
X69000000Y-170400000D01*
X70700000Y-172900000D02*
X70600000Y-173000000D01*
X70600000Y-173000000D02*
X70400000Y-173000000D01*
X70400000Y-173000000D02*
X70000000Y-172600000D01*
X70000000Y-172600000D02*
X70000000Y-171349998D01*
X70000000Y-171349998D02*
X69050002Y-170400000D01*
X66250000Y-169150000D02*
X65300000Y-169150000D01*
X66500000Y-168900000D02*
X66250000Y-169150000D01*
X69000000Y-170400000D02*
X68900000Y-170300000D01*
D30*
X65350000Y-169100000D02*
X65300000Y-169150000D01*
X61900000Y-173100000D02*
X59700000Y-173100000D01*
X59625000Y-173175000D02*
X58825000Y-173175000D01*
X58825000Y-173175000D02*
X58550000Y-172900000D01*
X58550000Y-172500000D02*
X58550000Y-171827401D01*
X58550000Y-172500000D02*
X58550000Y-172900000D01*
X59700000Y-173100000D02*
X59625000Y-173175000D01*
X61900000Y-173100000D02*
X61950000Y-173050000D01*
X62025000Y-173050000D02*
X62025000Y-172975000D01*
X67750000Y-170050000D02*
X67750000Y-168450000D01*
X67750000Y-168450000D02*
X67800000Y-168400000D01*
X64150000Y-167450000D02*
X63450000Y-167450000D01*
X63450000Y-167450000D02*
X62900000Y-168000000D01*
X62900000Y-168000000D02*
X62900000Y-169700000D01*
X62100000Y-170500000D02*
X62900000Y-169700000D01*
X62100000Y-172900000D02*
X62100000Y-170500000D01*
X61900000Y-173100000D02*
X62025000Y-172975000D01*
X62025000Y-172975000D02*
X62100000Y-172900000D01*
X67150000Y-168400000D02*
X67800000Y-168400000D01*
X66700000Y-167950000D02*
X67150000Y-168400000D01*
X66700000Y-166500000D02*
X66700000Y-167950000D01*
X67000000Y-166200000D02*
X66700000Y-166500000D01*
X64450000Y-167600000D02*
X64350000Y-167500000D01*
X67800000Y-168400000D02*
X67600000Y-168400000D01*
X67600000Y-168400000D02*
X67550000Y-168350000D01*
D29*
X67800000Y-168400000D02*
X67800000Y-169950000D01*
X67800000Y-169950000D02*
X67750000Y-170000000D01*
X67800000Y-168400000D02*
X67800000Y-169450000D01*
D35*
G36*
X71562500Y-172650000D02*
X72150000Y-172650000D01*
X72150000Y-177849715D01*
X64542538Y-177835280D01*
X64788910Y-177588908D01*
X65338906Y-177038911D01*
X65338909Y-177038909D01*
X65829212Y-176548606D01*
X65831324Y-176550722D01*
X66070140Y-176649887D01*
X66328726Y-176650112D01*
X66567714Y-176551364D01*
X66750722Y-176368676D01*
X66849887Y-176129860D01*
X66850043Y-175950000D01*
X66978726Y-175950112D01*
X67217714Y-175851364D01*
X67400722Y-175668676D01*
X67499887Y-175429860D01*
X67500112Y-175171274D01*
X67401364Y-174932286D01*
X67218676Y-174749278D01*
X67207366Y-174744582D01*
X67206586Y-174743414D01*
X67020043Y-174618769D01*
X66928348Y-174600530D01*
X66903596Y-174575778D01*
X66908816Y-174550000D01*
X66908816Y-174108816D01*
X67350000Y-174108816D01*
X67516760Y-174077438D01*
X67669919Y-173978883D01*
X67715276Y-173912500D01*
X68175000Y-173912500D01*
X68175000Y-174139511D01*
X68243509Y-174304905D01*
X68370096Y-174431492D01*
X68535490Y-174500000D01*
X68737500Y-174500000D01*
X68850000Y-174387500D01*
X68850000Y-173800000D01*
X69150000Y-173800000D01*
X69150000Y-174387500D01*
X69262500Y-174500000D01*
X69464510Y-174500000D01*
X69629904Y-174431492D01*
X69756491Y-174304905D01*
X69825000Y-174139511D01*
X69825000Y-173912500D01*
X69712500Y-173800000D01*
X69150000Y-173800000D01*
X68850000Y-173800000D01*
X68287500Y-173800000D01*
X68175000Y-173912500D01*
X67715276Y-173912500D01*
X67772668Y-173828505D01*
X67808816Y-173650000D01*
X67808816Y-173450000D01*
X67801168Y-173409356D01*
X67822248Y-173378505D01*
X67858396Y-173200000D01*
X67858396Y-173000000D01*
X67834440Y-172872683D01*
X67848180Y-172839511D01*
X67848180Y-172812500D01*
X67835682Y-172800002D01*
X67848180Y-172800002D01*
X67848180Y-172750000D01*
X68218951Y-172750000D01*
X68296117Y-172869919D01*
X68339228Y-172899376D01*
X68243509Y-172995095D01*
X68175000Y-173160489D01*
X68175000Y-173387500D01*
X68287500Y-173500000D01*
X68850000Y-173500000D01*
X68850000Y-173480000D01*
X69150000Y-173480000D01*
X69150000Y-173500000D01*
X69712500Y-173500000D01*
X69825000Y-173387500D01*
X69825000Y-173238173D01*
X69993413Y-173406586D01*
X70163919Y-173520515D01*
X70179957Y-173531231D01*
X70400000Y-173575000D01*
X70600000Y-173575000D01*
X70725572Y-173550022D01*
X70828726Y-173550112D01*
X71067714Y-173451364D01*
X71250722Y-173268676D01*
X71349887Y-173029860D01*
X71350112Y-172771274D01*
X71300003Y-172650000D01*
X71450002Y-172650000D01*
X71450002Y-172537502D01*
X71562500Y-172650000D01*
X71562500Y-172650000D01*
G37*
X71562500Y-172650000D02*
X72150000Y-172650000D01*
X72150000Y-177849715D01*
X64542538Y-177835280D01*
X64788910Y-177588908D01*
X65338906Y-177038911D01*
X65338909Y-177038909D01*
X65829212Y-176548606D01*
X65831324Y-176550722D01*
X66070140Y-176649887D01*
X66328726Y-176650112D01*
X66567714Y-176551364D01*
X66750722Y-176368676D01*
X66849887Y-176129860D01*
X66850043Y-175950000D01*
X66978726Y-175950112D01*
X67217714Y-175851364D01*
X67400722Y-175668676D01*
X67499887Y-175429860D01*
X67500112Y-175171274D01*
X67401364Y-174932286D01*
X67218676Y-174749278D01*
X67207366Y-174744582D01*
X67206586Y-174743414D01*
X67020043Y-174618769D01*
X66928348Y-174600530D01*
X66903596Y-174575778D01*
X66908816Y-174550000D01*
X66908816Y-174108816D01*
X67350000Y-174108816D01*
X67516760Y-174077438D01*
X67669919Y-173978883D01*
X67715276Y-173912500D01*
X68175000Y-173912500D01*
X68175000Y-174139511D01*
X68243509Y-174304905D01*
X68370096Y-174431492D01*
X68535490Y-174500000D01*
X68737500Y-174500000D01*
X68850000Y-174387500D01*
X68850000Y-173800000D01*
X69150000Y-173800000D01*
X69150000Y-174387500D01*
X69262500Y-174500000D01*
X69464510Y-174500000D01*
X69629904Y-174431492D01*
X69756491Y-174304905D01*
X69825000Y-174139511D01*
X69825000Y-173912500D01*
X69712500Y-173800000D01*
X69150000Y-173800000D01*
X68850000Y-173800000D01*
X68287500Y-173800000D01*
X68175000Y-173912500D01*
X67715276Y-173912500D01*
X67772668Y-173828505D01*
X67808816Y-173650000D01*
X67808816Y-173450000D01*
X67801168Y-173409356D01*
X67822248Y-173378505D01*
X67858396Y-173200000D01*
X67858396Y-173000000D01*
X67834440Y-172872683D01*
X67848180Y-172839511D01*
X67848180Y-172812500D01*
X67835682Y-172800002D01*
X67848180Y-172800002D01*
X67848180Y-172750000D01*
X68218951Y-172750000D01*
X68296117Y-172869919D01*
X68339228Y-172899376D01*
X68243509Y-172995095D01*
X68175000Y-173160489D01*
X68175000Y-173387500D01*
X68287500Y-173500000D01*
X68850000Y-173500000D01*
X68850000Y-173480000D01*
X69150000Y-173480000D01*
X69150000Y-173500000D01*
X69712500Y-173500000D01*
X69825000Y-173387500D01*
X69825000Y-173238173D01*
X69993413Y-173406586D01*
X70163919Y-173520515D01*
X70179957Y-173531231D01*
X70400000Y-173575000D01*
X70600000Y-173575000D01*
X70725572Y-173550022D01*
X70828726Y-173550112D01*
X71067714Y-173451364D01*
X71250722Y-173268676D01*
X71349887Y-173029860D01*
X71350112Y-172771274D01*
X71300003Y-172650000D01*
X71450002Y-172650000D01*
X71450002Y-172537502D01*
X71562500Y-172650000D01*
G36*
X72150000Y-168559004D02*
X72062000Y-168541184D01*
X71875000Y-168541184D01*
X71875000Y-167110208D01*
X71949887Y-166929860D01*
X71950112Y-166671274D01*
X71851364Y-166432286D01*
X71668676Y-166249278D01*
X71487021Y-166173848D01*
X69868816Y-164555644D01*
X69868816Y-163535000D01*
X69837438Y-163368240D01*
X69738883Y-163215081D01*
X69588505Y-163112332D01*
X69410000Y-163076184D01*
X67610000Y-163076184D01*
X67443240Y-163107562D01*
X67290081Y-163206117D01*
X67187332Y-163356495D01*
X67151184Y-163535000D01*
X67151184Y-165558967D01*
X67129860Y-165550113D01*
X66940000Y-165549948D01*
X66940000Y-164912500D01*
X66827500Y-164800000D01*
X65740000Y-164800000D01*
X65740000Y-166102500D01*
X65852500Y-166215000D01*
X66241661Y-166215000D01*
X66191866Y-166289524D01*
X66150000Y-166500000D01*
X66150000Y-167950000D01*
X66191866Y-168160476D01*
X66277499Y-168288635D01*
X66132286Y-168348636D01*
X66058816Y-168421978D01*
X66058816Y-168050000D01*
X66027438Y-167883240D01*
X65928883Y-167730081D01*
X65875000Y-167693264D01*
X65875000Y-167300000D01*
X65831231Y-167079957D01*
X65794510Y-167025000D01*
X65706586Y-166893413D01*
X65525936Y-166712763D01*
X65451364Y-166532286D01*
X65268676Y-166349278D01*
X65029860Y-166250113D01*
X64771274Y-166249888D01*
X64589489Y-166325000D01*
X62343879Y-166325000D01*
X62400000Y-166189510D01*
X62400000Y-166062500D01*
X62287500Y-165950000D01*
X61850000Y-165950000D01*
X61850000Y-165970000D01*
X61650000Y-165970000D01*
X61650000Y-165950000D01*
X61580000Y-165950000D01*
X61580000Y-165650000D01*
X61650000Y-165650000D01*
X61650000Y-165162500D01*
X61850000Y-165162500D01*
X61850000Y-165650000D01*
X62287500Y-165650000D01*
X62400000Y-165537500D01*
X62400000Y-165410490D01*
X62331492Y-165245096D01*
X62204905Y-165118509D01*
X62039511Y-165050000D01*
X61962500Y-165050000D01*
X61850000Y-165162500D01*
X61650000Y-165162500D01*
X61537500Y-165050000D01*
X61460489Y-165050000D01*
X61325000Y-165106122D01*
X61325000Y-165097136D01*
X61469919Y-165003883D01*
X61532358Y-164912500D01*
X64240000Y-164912500D01*
X64240000Y-165854510D01*
X64308508Y-166019904D01*
X64435095Y-166146491D01*
X64600489Y-166215000D01*
X65327500Y-166215000D01*
X65440000Y-166102500D01*
X65440000Y-164800000D01*
X64352500Y-164800000D01*
X64240000Y-164912500D01*
X61532358Y-164912500D01*
X61572668Y-164853505D01*
X61608816Y-164675000D01*
X61608816Y-163925000D01*
X61577438Y-163758240D01*
X61478883Y-163605081D01*
X61328505Y-163502332D01*
X61150000Y-163466184D01*
X60350000Y-163466184D01*
X60183240Y-163497562D01*
X60030081Y-163596117D01*
X60000744Y-163639054D01*
X59978883Y-163605081D01*
X59828505Y-163502332D01*
X59650000Y-163466184D01*
X58850000Y-163466184D01*
X58683240Y-163497562D01*
X58530081Y-163596117D01*
X58427332Y-163746495D01*
X58391184Y-163925000D01*
X58391184Y-164218496D01*
X58381491Y-164195095D01*
X58254904Y-164068508D01*
X58089510Y-164000000D01*
X57962500Y-164000000D01*
X57850000Y-164112500D01*
X57850000Y-164550000D01*
X57870000Y-164550000D01*
X57870000Y-164750000D01*
X57850000Y-164750000D01*
X57850000Y-164820000D01*
X57550000Y-164820000D01*
X57550000Y-164750000D01*
X57062500Y-164750000D01*
X56950000Y-164862500D01*
X56950000Y-164939511D01*
X57018509Y-165104905D01*
X57021077Y-165107473D01*
X56980310Y-165167137D01*
X56888499Y-165075327D01*
X56908816Y-164975000D01*
X56908816Y-164360489D01*
X56950000Y-164360489D01*
X56950000Y-164437500D01*
X57062500Y-164550000D01*
X57550000Y-164550000D01*
X57550000Y-164112500D01*
X57437500Y-164000000D01*
X57310490Y-164000000D01*
X57145096Y-164068508D01*
X57018509Y-164195095D01*
X56950000Y-164360489D01*
X56908816Y-164360489D01*
X56908816Y-164225000D01*
X56877438Y-164058240D01*
X56778883Y-163905081D01*
X56628505Y-163802332D01*
X56450000Y-163766184D01*
X55650000Y-163766184D01*
X55483240Y-163797562D01*
X55330081Y-163896117D01*
X55300624Y-163939228D01*
X55204905Y-163843509D01*
X55039511Y-163775000D01*
X54812500Y-163775000D01*
X54700000Y-163887500D01*
X54700000Y-164450000D01*
X54720000Y-164450000D01*
X54720000Y-164750000D01*
X54700000Y-164750000D01*
X54700000Y-164770000D01*
X54400000Y-164770000D01*
X54400000Y-164750000D01*
X53812500Y-164750000D01*
X53700000Y-164862500D01*
X53700000Y-165000000D01*
X51600000Y-165000000D01*
X51293853Y-165060896D01*
X51034315Y-165234314D01*
X50234315Y-166034315D01*
X50060896Y-166293853D01*
X50000000Y-166600000D01*
X50000000Y-167408731D01*
X49923816Y-167408448D01*
X49923816Y-167310000D01*
X49892438Y-167143240D01*
X49793883Y-166990081D01*
X49643505Y-166887332D01*
X49465000Y-166851184D01*
X47235000Y-166851184D01*
X47068240Y-166882562D01*
X46915081Y-166981117D01*
X46812332Y-167131495D01*
X46776184Y-167310000D01*
X46776184Y-169110000D01*
X46807562Y-169276760D01*
X46906117Y-169429919D01*
X47056495Y-169532668D01*
X47235000Y-169568816D01*
X49465000Y-169568816D01*
X49625058Y-169538699D01*
X53728899Y-169538699D01*
X53728899Y-169591910D01*
X53797408Y-169757304D01*
X53923995Y-169883891D01*
X54089389Y-169952399D01*
X54310099Y-169952399D01*
X54422599Y-169839899D01*
X54422599Y-169426199D01*
X53841399Y-169426199D01*
X53728899Y-169538699D01*
X49625058Y-169538699D01*
X49631760Y-169537438D01*
X49784919Y-169438883D01*
X49887668Y-169288505D01*
X49923816Y-169110000D01*
X49923816Y-169008458D01*
X50337026Y-169009994D01*
X50338515Y-169009704D01*
X50340000Y-169009999D01*
X50491552Y-168979854D01*
X50643398Y-168950237D01*
X50644662Y-168949399D01*
X50646147Y-168949104D01*
X50774610Y-168863267D01*
X50903579Y-168777784D01*
X50904426Y-168776526D01*
X50905685Y-168775685D01*
X51365685Y-168315686D01*
X51539104Y-168056147D01*
X51551582Y-167993414D01*
X51600000Y-167750000D01*
X51600000Y-166931370D01*
X51931371Y-166600000D01*
X53223607Y-166600000D01*
X53160896Y-166693853D01*
X53100000Y-167000000D01*
X53160896Y-167306147D01*
X53334315Y-167565685D01*
X53593853Y-167739104D01*
X53900000Y-167800000D01*
X54497600Y-167800000D01*
X54497331Y-167800394D01*
X54461183Y-167978899D01*
X54461183Y-168461647D01*
X54459999Y-168467599D01*
X54461183Y-168473551D01*
X54461183Y-168747599D01*
X54422597Y-168747599D01*
X54422597Y-168860097D01*
X54310099Y-168747599D01*
X54089389Y-168747599D01*
X53923995Y-168816107D01*
X53797408Y-168942694D01*
X53728899Y-169108088D01*
X53728899Y-169161299D01*
X53841399Y-169273799D01*
X54422599Y-169273799D01*
X54422599Y-169197599D01*
X54700000Y-169197599D01*
X54700000Y-169837500D01*
X54812500Y-169950000D01*
X54832700Y-169950000D01*
X54835099Y-169952399D01*
X55055809Y-169952399D01*
X55061601Y-169950000D01*
X57150000Y-169950000D01*
X57150000Y-169930000D01*
X57450000Y-169930000D01*
X57450000Y-169950000D01*
X59538399Y-169950000D01*
X59544191Y-169952399D01*
X59764901Y-169952399D01*
X59767300Y-169950000D01*
X59787500Y-169950000D01*
X59900000Y-169837500D01*
X59900000Y-169426199D01*
X60177401Y-169426199D01*
X60177401Y-169839899D01*
X60289901Y-169952399D01*
X60510611Y-169952399D01*
X60676005Y-169883891D01*
X60802592Y-169757304D01*
X60871101Y-169591910D01*
X60871101Y-169538699D01*
X60758601Y-169426199D01*
X60177401Y-169426199D01*
X59900000Y-169426199D01*
X59900000Y-169197599D01*
X60177401Y-169197599D01*
X60177401Y-169273799D01*
X60758601Y-169273799D01*
X60871101Y-169161299D01*
X60871101Y-169108088D01*
X60804624Y-168947599D01*
X60977401Y-168947599D01*
X61172378Y-168908816D01*
X61400000Y-168908816D01*
X61566760Y-168877438D01*
X61578096Y-168870143D01*
X61770140Y-168949887D01*
X62028726Y-168950112D01*
X62267714Y-168851364D01*
X62350000Y-168769222D01*
X62350000Y-169472182D01*
X61711091Y-170111091D01*
X61591866Y-170289524D01*
X61550000Y-170500000D01*
X61550000Y-170800000D01*
X61462500Y-170800000D01*
X61350000Y-170912500D01*
X61350000Y-171350000D01*
X61370000Y-171350000D01*
X61370000Y-171550000D01*
X61350000Y-171550000D01*
X61350000Y-171620000D01*
X61050000Y-171620000D01*
X61050000Y-171550000D01*
X61030000Y-171550000D01*
X61030000Y-171350000D01*
X61050000Y-171350000D01*
X61050000Y-170912500D01*
X60937500Y-170800000D01*
X60871101Y-170800000D01*
X60871101Y-170699999D01*
X60832403Y-170699999D01*
X60871101Y-170661301D01*
X60871101Y-170608090D01*
X60802592Y-170442696D01*
X60676005Y-170316109D01*
X60510611Y-170247601D01*
X60289901Y-170247601D01*
X60177401Y-170360101D01*
X60177401Y-170773801D01*
X60197401Y-170773801D01*
X60197401Y-170926201D01*
X60177401Y-170926201D01*
X60177401Y-171002401D01*
X59900000Y-171002401D01*
X59900000Y-170362500D01*
X59787500Y-170250000D01*
X59767300Y-170250000D01*
X59764901Y-170247601D01*
X59544191Y-170247601D01*
X59538399Y-170250000D01*
X57450000Y-170250000D01*
X57450000Y-170270000D01*
X57150000Y-170270000D01*
X57150000Y-170250000D01*
X55061601Y-170250000D01*
X55055809Y-170247601D01*
X54835099Y-170247601D01*
X54832700Y-170250000D01*
X54812500Y-170250000D01*
X54700000Y-170362500D01*
X54700000Y-171002401D01*
X54422599Y-171002401D01*
X54422599Y-170926201D01*
X53841399Y-170926201D01*
X53728899Y-171038701D01*
X53728899Y-171091912D01*
X53797408Y-171257306D01*
X53923995Y-171383893D01*
X54089389Y-171452401D01*
X54310099Y-171452401D01*
X54422597Y-171339903D01*
X54422597Y-171452401D01*
X54461183Y-171452401D01*
X54461183Y-172221101D01*
X54492561Y-172387861D01*
X54591116Y-172541020D01*
X54741494Y-172643769D01*
X54750001Y-172645492D01*
X54750001Y-172648627D01*
X54711414Y-172842621D01*
X54674316Y-172850000D01*
X51723875Y-172850000D01*
X51678883Y-172780081D01*
X51528505Y-172677332D01*
X51350000Y-172641184D01*
X50950000Y-172641184D01*
X50783240Y-172672562D01*
X50707619Y-172721223D01*
X50704905Y-172718509D01*
X50539511Y-172650000D01*
X50462500Y-172650000D01*
X50350000Y-172762500D01*
X50350000Y-173250000D01*
X50420000Y-173250000D01*
X50420000Y-173550000D01*
X50350000Y-173550000D01*
X50350000Y-173570000D01*
X50150000Y-173570000D01*
X50150000Y-173550000D01*
X49712500Y-173550000D01*
X49600000Y-173662500D01*
X49600000Y-173789510D01*
X49668508Y-173954904D01*
X49795095Y-174081491D01*
X49830785Y-174096274D01*
X49800113Y-174170140D01*
X49799888Y-174428726D01*
X49875000Y-174610511D01*
X49875000Y-175761827D01*
X49558816Y-176078012D01*
X49558816Y-175825000D01*
X49534432Y-175695411D01*
X49558816Y-175575000D01*
X49558816Y-175175000D01*
X49535297Y-175050007D01*
X49550000Y-175014510D01*
X49550000Y-174937500D01*
X49437500Y-174825000D01*
X49384858Y-174825000D01*
X49278505Y-174752332D01*
X49100000Y-174716184D01*
X48230000Y-174716184D01*
X48230000Y-174625000D01*
X48250000Y-174625000D01*
X48250000Y-174187500D01*
X48550000Y-174187500D01*
X48550000Y-174625000D01*
X49437500Y-174625000D01*
X49550000Y-174512500D01*
X49550000Y-174435490D01*
X49481492Y-174270096D01*
X49354905Y-174143509D01*
X49189511Y-174075000D01*
X48662500Y-174075000D01*
X48550000Y-174187500D01*
X48250000Y-174187500D01*
X48137500Y-174075000D01*
X47825000Y-174075000D01*
X47825000Y-173010490D01*
X49600000Y-173010490D01*
X49600000Y-173137500D01*
X49712500Y-173250000D01*
X50150000Y-173250000D01*
X50150000Y-172762500D01*
X50037500Y-172650000D01*
X49960489Y-172650000D01*
X49795095Y-172718509D01*
X49668508Y-172845096D01*
X49600000Y-173010490D01*
X47825000Y-173010490D01*
X47825000Y-171560332D01*
X47967714Y-171501364D01*
X48150722Y-171318676D01*
X48249887Y-171079860D01*
X48250112Y-170821274D01*
X48162027Y-170608090D01*
X53728899Y-170608090D01*
X53728899Y-170661301D01*
X53841399Y-170773801D01*
X54422599Y-170773801D01*
X54422599Y-170360101D01*
X54310099Y-170247601D01*
X54089389Y-170247601D01*
X53923995Y-170316109D01*
X53797408Y-170442696D01*
X53728899Y-170608090D01*
X48162027Y-170608090D01*
X48151364Y-170582286D01*
X47968676Y-170399278D01*
X47729860Y-170300113D01*
X47471274Y-170299888D01*
X47232286Y-170398636D01*
X47049278Y-170581324D01*
X46973848Y-170762980D01*
X46843414Y-170893414D01*
X46718769Y-171079957D01*
X46675000Y-171300000D01*
X46675000Y-175050000D01*
X46713772Y-175244919D01*
X46718769Y-175270043D01*
X46719575Y-175271250D01*
X46532286Y-175348636D01*
X46349278Y-175531324D01*
X46250113Y-175770140D01*
X46249888Y-176028726D01*
X46348636Y-176267714D01*
X46531324Y-176450722D01*
X46770140Y-176549887D01*
X46795496Y-176549909D01*
X46804957Y-176556231D01*
X47025000Y-176600000D01*
X47241184Y-176600000D01*
X47241184Y-176875000D01*
X47272562Y-177041760D01*
X47371117Y-177194919D01*
X47521495Y-177297668D01*
X47700000Y-177333816D01*
X49100000Y-177333816D01*
X49266760Y-177302438D01*
X49348251Y-177250000D01*
X49775000Y-177250000D01*
X49995043Y-177206231D01*
X50181586Y-177081586D01*
X50856586Y-176406587D01*
X50981231Y-176220043D01*
X50985489Y-176198636D01*
X51025000Y-176000000D01*
X51025000Y-175438173D01*
X51093414Y-175506587D01*
X51093417Y-175506589D01*
X51368414Y-175781587D01*
X51554957Y-175906231D01*
X51641184Y-175923383D01*
X51641184Y-176225000D01*
X51665568Y-176354589D01*
X51641184Y-176475000D01*
X51641184Y-176875000D01*
X51672562Y-177041760D01*
X51771117Y-177194919D01*
X51921495Y-177297668D01*
X52100000Y-177333816D01*
X53500000Y-177333816D01*
X53666760Y-177302438D01*
X53748251Y-177250000D01*
X54188319Y-177250000D01*
X54221495Y-177272668D01*
X54400000Y-177308816D01*
X54630998Y-177308816D01*
X54911089Y-177588906D01*
X54911091Y-177588909D01*
X55139619Y-177817437D01*
X46100000Y-177800284D01*
X46100000Y-165552500D01*
X46785000Y-165552500D01*
X46785000Y-166279511D01*
X46853509Y-166444905D01*
X46980096Y-166571492D01*
X47145490Y-166640000D01*
X48087500Y-166640000D01*
X48200000Y-166527500D01*
X48200000Y-165440000D01*
X48500000Y-165440000D01*
X48500000Y-166527500D01*
X48612500Y-166640000D01*
X49554510Y-166640000D01*
X49719904Y-166571492D01*
X49846491Y-166444905D01*
X49915000Y-166279511D01*
X49915000Y-165552500D01*
X49802500Y-165440000D01*
X48500000Y-165440000D01*
X48200000Y-165440000D01*
X46897500Y-165440000D01*
X46785000Y-165552500D01*
X46100000Y-165552500D01*
X46100000Y-164300489D01*
X46785000Y-164300489D01*
X46785000Y-165027500D01*
X46897500Y-165140000D01*
X48200000Y-165140000D01*
X48200000Y-164052500D01*
X48500000Y-164052500D01*
X48500000Y-165140000D01*
X49802500Y-165140000D01*
X49915000Y-165027500D01*
X49915000Y-164300489D01*
X49846655Y-164135490D01*
X53700000Y-164135490D01*
X53700000Y-164337500D01*
X53812500Y-164450000D01*
X54400000Y-164450000D01*
X54400000Y-163887500D01*
X54287500Y-163775000D01*
X54060489Y-163775000D01*
X53895095Y-163843509D01*
X53768508Y-163970096D01*
X53700000Y-164135490D01*
X49846655Y-164135490D01*
X49846491Y-164135095D01*
X49719904Y-164008508D01*
X49554510Y-163940000D01*
X48612500Y-163940000D01*
X48500000Y-164052500D01*
X48200000Y-164052500D01*
X48087500Y-163940000D01*
X47145490Y-163940000D01*
X46980096Y-164008508D01*
X46853509Y-164135095D01*
X46785000Y-164300489D01*
X46100000Y-164300489D01*
X46100000Y-163445490D01*
X64240000Y-163445490D01*
X64240000Y-164387500D01*
X64352500Y-164500000D01*
X65440000Y-164500000D01*
X65440000Y-163197500D01*
X65740000Y-163197500D01*
X65740000Y-164500000D01*
X66827500Y-164500000D01*
X66940000Y-164387500D01*
X66940000Y-163445490D01*
X66871492Y-163280096D01*
X66744905Y-163153509D01*
X66579511Y-163085000D01*
X65852500Y-163085000D01*
X65740000Y-163197500D01*
X65440000Y-163197500D01*
X65327500Y-163085000D01*
X64600489Y-163085000D01*
X64435095Y-163153509D01*
X64308508Y-163280096D01*
X64240000Y-163445490D01*
X46100000Y-163445490D01*
X46100000Y-162000000D01*
X72150000Y-162000000D01*
X72150000Y-168559004D01*
X72150000Y-168559004D01*
G37*
X72150000Y-168559004D02*
X72062000Y-168541184D01*
X71875000Y-168541184D01*
X71875000Y-167110208D01*
X71949887Y-166929860D01*
X71950112Y-166671274D01*
X71851364Y-166432286D01*
X71668676Y-166249278D01*
X71487021Y-166173848D01*
X69868816Y-164555644D01*
X69868816Y-163535000D01*
X69837438Y-163368240D01*
X69738883Y-163215081D01*
X69588505Y-163112332D01*
X69410000Y-163076184D01*
X67610000Y-163076184D01*
X67443240Y-163107562D01*
X67290081Y-163206117D01*
X67187332Y-163356495D01*
X67151184Y-163535000D01*
X67151184Y-165558967D01*
X67129860Y-165550113D01*
X66940000Y-165549948D01*
X66940000Y-164912500D01*
X66827500Y-164800000D01*
X65740000Y-164800000D01*
X65740000Y-166102500D01*
X65852500Y-166215000D01*
X66241661Y-166215000D01*
X66191866Y-166289524D01*
X66150000Y-166500000D01*
X66150000Y-167950000D01*
X66191866Y-168160476D01*
X66277499Y-168288635D01*
X66132286Y-168348636D01*
X66058816Y-168421978D01*
X66058816Y-168050000D01*
X66027438Y-167883240D01*
X65928883Y-167730081D01*
X65875000Y-167693264D01*
X65875000Y-167300000D01*
X65831231Y-167079957D01*
X65794510Y-167025000D01*
X65706586Y-166893413D01*
X65525936Y-166712763D01*
X65451364Y-166532286D01*
X65268676Y-166349278D01*
X65029860Y-166250113D01*
X64771274Y-166249888D01*
X64589489Y-166325000D01*
X62343879Y-166325000D01*
X62400000Y-166189510D01*
X62400000Y-166062500D01*
X62287500Y-165950000D01*
X61850000Y-165950000D01*
X61850000Y-165970000D01*
X61650000Y-165970000D01*
X61650000Y-165950000D01*
X61580000Y-165950000D01*
X61580000Y-165650000D01*
X61650000Y-165650000D01*
X61650000Y-165162500D01*
X61850000Y-165162500D01*
X61850000Y-165650000D01*
X62287500Y-165650000D01*
X62400000Y-165537500D01*
X62400000Y-165410490D01*
X62331492Y-165245096D01*
X62204905Y-165118509D01*
X62039511Y-165050000D01*
X61962500Y-165050000D01*
X61850000Y-165162500D01*
X61650000Y-165162500D01*
X61537500Y-165050000D01*
X61460489Y-165050000D01*
X61325000Y-165106122D01*
X61325000Y-165097136D01*
X61469919Y-165003883D01*
X61532358Y-164912500D01*
X64240000Y-164912500D01*
X64240000Y-165854510D01*
X64308508Y-166019904D01*
X64435095Y-166146491D01*
X64600489Y-166215000D01*
X65327500Y-166215000D01*
X65440000Y-166102500D01*
X65440000Y-164800000D01*
X64352500Y-164800000D01*
X64240000Y-164912500D01*
X61532358Y-164912500D01*
X61572668Y-164853505D01*
X61608816Y-164675000D01*
X61608816Y-163925000D01*
X61577438Y-163758240D01*
X61478883Y-163605081D01*
X61328505Y-163502332D01*
X61150000Y-163466184D01*
X60350000Y-163466184D01*
X60183240Y-163497562D01*
X60030081Y-163596117D01*
X60000744Y-163639054D01*
X59978883Y-163605081D01*
X59828505Y-163502332D01*
X59650000Y-163466184D01*
X58850000Y-163466184D01*
X58683240Y-163497562D01*
X58530081Y-163596117D01*
X58427332Y-163746495D01*
X58391184Y-163925000D01*
X58391184Y-164218496D01*
X58381491Y-164195095D01*
X58254904Y-164068508D01*
X58089510Y-164000000D01*
X57962500Y-164000000D01*
X57850000Y-164112500D01*
X57850000Y-164550000D01*
X57870000Y-164550000D01*
X57870000Y-164750000D01*
X57850000Y-164750000D01*
X57850000Y-164820000D01*
X57550000Y-164820000D01*
X57550000Y-164750000D01*
X57062500Y-164750000D01*
X56950000Y-164862500D01*
X56950000Y-164939511D01*
X57018509Y-165104905D01*
X57021077Y-165107473D01*
X56980310Y-165167137D01*
X56888499Y-165075327D01*
X56908816Y-164975000D01*
X56908816Y-164360489D01*
X56950000Y-164360489D01*
X56950000Y-164437500D01*
X57062500Y-164550000D01*
X57550000Y-164550000D01*
X57550000Y-164112500D01*
X57437500Y-164000000D01*
X57310490Y-164000000D01*
X57145096Y-164068508D01*
X57018509Y-164195095D01*
X56950000Y-164360489D01*
X56908816Y-164360489D01*
X56908816Y-164225000D01*
X56877438Y-164058240D01*
X56778883Y-163905081D01*
X56628505Y-163802332D01*
X56450000Y-163766184D01*
X55650000Y-163766184D01*
X55483240Y-163797562D01*
X55330081Y-163896117D01*
X55300624Y-163939228D01*
X55204905Y-163843509D01*
X55039511Y-163775000D01*
X54812500Y-163775000D01*
X54700000Y-163887500D01*
X54700000Y-164450000D01*
X54720000Y-164450000D01*
X54720000Y-164750000D01*
X54700000Y-164750000D01*
X54700000Y-164770000D01*
X54400000Y-164770000D01*
X54400000Y-164750000D01*
X53812500Y-164750000D01*
X53700000Y-164862500D01*
X53700000Y-165000000D01*
X51600000Y-165000000D01*
X51293853Y-165060896D01*
X51034315Y-165234314D01*
X50234315Y-166034315D01*
X50060896Y-166293853D01*
X50000000Y-166600000D01*
X50000000Y-167408731D01*
X49923816Y-167408448D01*
X49923816Y-167310000D01*
X49892438Y-167143240D01*
X49793883Y-166990081D01*
X49643505Y-166887332D01*
X49465000Y-166851184D01*
X47235000Y-166851184D01*
X47068240Y-166882562D01*
X46915081Y-166981117D01*
X46812332Y-167131495D01*
X46776184Y-167310000D01*
X46776184Y-169110000D01*
X46807562Y-169276760D01*
X46906117Y-169429919D01*
X47056495Y-169532668D01*
X47235000Y-169568816D01*
X49465000Y-169568816D01*
X49625058Y-169538699D01*
X53728899Y-169538699D01*
X53728899Y-169591910D01*
X53797408Y-169757304D01*
X53923995Y-169883891D01*
X54089389Y-169952399D01*
X54310099Y-169952399D01*
X54422599Y-169839899D01*
X54422599Y-169426199D01*
X53841399Y-169426199D01*
X53728899Y-169538699D01*
X49625058Y-169538699D01*
X49631760Y-169537438D01*
X49784919Y-169438883D01*
X49887668Y-169288505D01*
X49923816Y-169110000D01*
X49923816Y-169008458D01*
X50337026Y-169009994D01*
X50338515Y-169009704D01*
X50340000Y-169009999D01*
X50491552Y-168979854D01*
X50643398Y-168950237D01*
X50644662Y-168949399D01*
X50646147Y-168949104D01*
X50774610Y-168863267D01*
X50903579Y-168777784D01*
X50904426Y-168776526D01*
X50905685Y-168775685D01*
X51365685Y-168315686D01*
X51539104Y-168056147D01*
X51551582Y-167993414D01*
X51600000Y-167750000D01*
X51600000Y-166931370D01*
X51931371Y-166600000D01*
X53223607Y-166600000D01*
X53160896Y-166693853D01*
X53100000Y-167000000D01*
X53160896Y-167306147D01*
X53334315Y-167565685D01*
X53593853Y-167739104D01*
X53900000Y-167800000D01*
X54497600Y-167800000D01*
X54497331Y-167800394D01*
X54461183Y-167978899D01*
X54461183Y-168461647D01*
X54459999Y-168467599D01*
X54461183Y-168473551D01*
X54461183Y-168747599D01*
X54422597Y-168747599D01*
X54422597Y-168860097D01*
X54310099Y-168747599D01*
X54089389Y-168747599D01*
X53923995Y-168816107D01*
X53797408Y-168942694D01*
X53728899Y-169108088D01*
X53728899Y-169161299D01*
X53841399Y-169273799D01*
X54422599Y-169273799D01*
X54422599Y-169197599D01*
X54700000Y-169197599D01*
X54700000Y-169837500D01*
X54812500Y-169950000D01*
X54832700Y-169950000D01*
X54835099Y-169952399D01*
X55055809Y-169952399D01*
X55061601Y-169950000D01*
X57150000Y-169950000D01*
X57150000Y-169930000D01*
X57450000Y-169930000D01*
X57450000Y-169950000D01*
X59538399Y-169950000D01*
X59544191Y-169952399D01*
X59764901Y-169952399D01*
X59767300Y-169950000D01*
X59787500Y-169950000D01*
X59900000Y-169837500D01*
X59900000Y-169426199D01*
X60177401Y-169426199D01*
X60177401Y-169839899D01*
X60289901Y-169952399D01*
X60510611Y-169952399D01*
X60676005Y-169883891D01*
X60802592Y-169757304D01*
X60871101Y-169591910D01*
X60871101Y-169538699D01*
X60758601Y-169426199D01*
X60177401Y-169426199D01*
X59900000Y-169426199D01*
X59900000Y-169197599D01*
X60177401Y-169197599D01*
X60177401Y-169273799D01*
X60758601Y-169273799D01*
X60871101Y-169161299D01*
X60871101Y-169108088D01*
X60804624Y-168947599D01*
X60977401Y-168947599D01*
X61172378Y-168908816D01*
X61400000Y-168908816D01*
X61566760Y-168877438D01*
X61578096Y-168870143D01*
X61770140Y-168949887D01*
X62028726Y-168950112D01*
X62267714Y-168851364D01*
X62350000Y-168769222D01*
X62350000Y-169472182D01*
X61711091Y-170111091D01*
X61591866Y-170289524D01*
X61550000Y-170500000D01*
X61550000Y-170800000D01*
X61462500Y-170800000D01*
X61350000Y-170912500D01*
X61350000Y-171350000D01*
X61370000Y-171350000D01*
X61370000Y-171550000D01*
X61350000Y-171550000D01*
X61350000Y-171620000D01*
X61050000Y-171620000D01*
X61050000Y-171550000D01*
X61030000Y-171550000D01*
X61030000Y-171350000D01*
X61050000Y-171350000D01*
X61050000Y-170912500D01*
X60937500Y-170800000D01*
X60871101Y-170800000D01*
X60871101Y-170699999D01*
X60832403Y-170699999D01*
X60871101Y-170661301D01*
X60871101Y-170608090D01*
X60802592Y-170442696D01*
X60676005Y-170316109D01*
X60510611Y-170247601D01*
X60289901Y-170247601D01*
X60177401Y-170360101D01*
X60177401Y-170773801D01*
X60197401Y-170773801D01*
X60197401Y-170926201D01*
X60177401Y-170926201D01*
X60177401Y-171002401D01*
X59900000Y-171002401D01*
X59900000Y-170362500D01*
X59787500Y-170250000D01*
X59767300Y-170250000D01*
X59764901Y-170247601D01*
X59544191Y-170247601D01*
X59538399Y-170250000D01*
X57450000Y-170250000D01*
X57450000Y-170270000D01*
X57150000Y-170270000D01*
X57150000Y-170250000D01*
X55061601Y-170250000D01*
X55055809Y-170247601D01*
X54835099Y-170247601D01*
X54832700Y-170250000D01*
X54812500Y-170250000D01*
X54700000Y-170362500D01*
X54700000Y-171002401D01*
X54422599Y-171002401D01*
X54422599Y-170926201D01*
X53841399Y-170926201D01*
X53728899Y-171038701D01*
X53728899Y-171091912D01*
X53797408Y-171257306D01*
X53923995Y-171383893D01*
X54089389Y-171452401D01*
X54310099Y-171452401D01*
X54422597Y-171339903D01*
X54422597Y-171452401D01*
X54461183Y-171452401D01*
X54461183Y-172221101D01*
X54492561Y-172387861D01*
X54591116Y-172541020D01*
X54741494Y-172643769D01*
X54750001Y-172645492D01*
X54750001Y-172648627D01*
X54711414Y-172842621D01*
X54674316Y-172850000D01*
X51723875Y-172850000D01*
X51678883Y-172780081D01*
X51528505Y-172677332D01*
X51350000Y-172641184D01*
X50950000Y-172641184D01*
X50783240Y-172672562D01*
X50707619Y-172721223D01*
X50704905Y-172718509D01*
X50539511Y-172650000D01*
X50462500Y-172650000D01*
X50350000Y-172762500D01*
X50350000Y-173250000D01*
X50420000Y-173250000D01*
X50420000Y-173550000D01*
X50350000Y-173550000D01*
X50350000Y-173570000D01*
X50150000Y-173570000D01*
X50150000Y-173550000D01*
X49712500Y-173550000D01*
X49600000Y-173662500D01*
X49600000Y-173789510D01*
X49668508Y-173954904D01*
X49795095Y-174081491D01*
X49830785Y-174096274D01*
X49800113Y-174170140D01*
X49799888Y-174428726D01*
X49875000Y-174610511D01*
X49875000Y-175761827D01*
X49558816Y-176078012D01*
X49558816Y-175825000D01*
X49534432Y-175695411D01*
X49558816Y-175575000D01*
X49558816Y-175175000D01*
X49535297Y-175050007D01*
X49550000Y-175014510D01*
X49550000Y-174937500D01*
X49437500Y-174825000D01*
X49384858Y-174825000D01*
X49278505Y-174752332D01*
X49100000Y-174716184D01*
X48230000Y-174716184D01*
X48230000Y-174625000D01*
X48250000Y-174625000D01*
X48250000Y-174187500D01*
X48550000Y-174187500D01*
X48550000Y-174625000D01*
X49437500Y-174625000D01*
X49550000Y-174512500D01*
X49550000Y-174435490D01*
X49481492Y-174270096D01*
X49354905Y-174143509D01*
X49189511Y-174075000D01*
X48662500Y-174075000D01*
X48550000Y-174187500D01*
X48250000Y-174187500D01*
X48137500Y-174075000D01*
X47825000Y-174075000D01*
X47825000Y-173010490D01*
X49600000Y-173010490D01*
X49600000Y-173137500D01*
X49712500Y-173250000D01*
X50150000Y-173250000D01*
X50150000Y-172762500D01*
X50037500Y-172650000D01*
X49960489Y-172650000D01*
X49795095Y-172718509D01*
X49668508Y-172845096D01*
X49600000Y-173010490D01*
X47825000Y-173010490D01*
X47825000Y-171560332D01*
X47967714Y-171501364D01*
X48150722Y-171318676D01*
X48249887Y-171079860D01*
X48250112Y-170821274D01*
X48162027Y-170608090D01*
X53728899Y-170608090D01*
X53728899Y-170661301D01*
X53841399Y-170773801D01*
X54422599Y-170773801D01*
X54422599Y-170360101D01*
X54310099Y-170247601D01*
X54089389Y-170247601D01*
X53923995Y-170316109D01*
X53797408Y-170442696D01*
X53728899Y-170608090D01*
X48162027Y-170608090D01*
X48151364Y-170582286D01*
X47968676Y-170399278D01*
X47729860Y-170300113D01*
X47471274Y-170299888D01*
X47232286Y-170398636D01*
X47049278Y-170581324D01*
X46973848Y-170762980D01*
X46843414Y-170893414D01*
X46718769Y-171079957D01*
X46675000Y-171300000D01*
X46675000Y-175050000D01*
X46713772Y-175244919D01*
X46718769Y-175270043D01*
X46719575Y-175271250D01*
X46532286Y-175348636D01*
X46349278Y-175531324D01*
X46250113Y-175770140D01*
X46249888Y-176028726D01*
X46348636Y-176267714D01*
X46531324Y-176450722D01*
X46770140Y-176549887D01*
X46795496Y-176549909D01*
X46804957Y-176556231D01*
X47025000Y-176600000D01*
X47241184Y-176600000D01*
X47241184Y-176875000D01*
X47272562Y-177041760D01*
X47371117Y-177194919D01*
X47521495Y-177297668D01*
X47700000Y-177333816D01*
X49100000Y-177333816D01*
X49266760Y-177302438D01*
X49348251Y-177250000D01*
X49775000Y-177250000D01*
X49995043Y-177206231D01*
X50181586Y-177081586D01*
X50856586Y-176406587D01*
X50981231Y-176220043D01*
X50985489Y-176198636D01*
X51025000Y-176000000D01*
X51025000Y-175438173D01*
X51093414Y-175506587D01*
X51093417Y-175506589D01*
X51368414Y-175781587D01*
X51554957Y-175906231D01*
X51641184Y-175923383D01*
X51641184Y-176225000D01*
X51665568Y-176354589D01*
X51641184Y-176475000D01*
X51641184Y-176875000D01*
X51672562Y-177041760D01*
X51771117Y-177194919D01*
X51921495Y-177297668D01*
X52100000Y-177333816D01*
X53500000Y-177333816D01*
X53666760Y-177302438D01*
X53748251Y-177250000D01*
X54188319Y-177250000D01*
X54221495Y-177272668D01*
X54400000Y-177308816D01*
X54630998Y-177308816D01*
X54911089Y-177588906D01*
X54911091Y-177588909D01*
X55139619Y-177817437D01*
X46100000Y-177800284D01*
X46100000Y-165552500D01*
X46785000Y-165552500D01*
X46785000Y-166279511D01*
X46853509Y-166444905D01*
X46980096Y-166571492D01*
X47145490Y-166640000D01*
X48087500Y-166640000D01*
X48200000Y-166527500D01*
X48200000Y-165440000D01*
X48500000Y-165440000D01*
X48500000Y-166527500D01*
X48612500Y-166640000D01*
X49554510Y-166640000D01*
X49719904Y-166571492D01*
X49846491Y-166444905D01*
X49915000Y-166279511D01*
X49915000Y-165552500D01*
X49802500Y-165440000D01*
X48500000Y-165440000D01*
X48200000Y-165440000D01*
X46897500Y-165440000D01*
X46785000Y-165552500D01*
X46100000Y-165552500D01*
X46100000Y-164300489D01*
X46785000Y-164300489D01*
X46785000Y-165027500D01*
X46897500Y-165140000D01*
X48200000Y-165140000D01*
X48200000Y-164052500D01*
X48500000Y-164052500D01*
X48500000Y-165140000D01*
X49802500Y-165140000D01*
X49915000Y-165027500D01*
X49915000Y-164300489D01*
X49846655Y-164135490D01*
X53700000Y-164135490D01*
X53700000Y-164337500D01*
X53812500Y-164450000D01*
X54400000Y-164450000D01*
X54400000Y-163887500D01*
X54287500Y-163775000D01*
X54060489Y-163775000D01*
X53895095Y-163843509D01*
X53768508Y-163970096D01*
X53700000Y-164135490D01*
X49846655Y-164135490D01*
X49846491Y-164135095D01*
X49719904Y-164008508D01*
X49554510Y-163940000D01*
X48612500Y-163940000D01*
X48500000Y-164052500D01*
X48200000Y-164052500D01*
X48087500Y-163940000D01*
X47145490Y-163940000D01*
X46980096Y-164008508D01*
X46853509Y-164135095D01*
X46785000Y-164300489D01*
X46100000Y-164300489D01*
X46100000Y-163445490D01*
X64240000Y-163445490D01*
X64240000Y-164387500D01*
X64352500Y-164500000D01*
X65440000Y-164500000D01*
X65440000Y-163197500D01*
X65740000Y-163197500D01*
X65740000Y-164500000D01*
X66827500Y-164500000D01*
X66940000Y-164387500D01*
X66940000Y-163445490D01*
X66871492Y-163280096D01*
X66744905Y-163153509D01*
X66579511Y-163085000D01*
X65852500Y-163085000D01*
X65740000Y-163197500D01*
X65440000Y-163197500D01*
X65327500Y-163085000D01*
X64600489Y-163085000D01*
X64435095Y-163153509D01*
X64308508Y-163280096D01*
X64240000Y-163445490D01*
X46100000Y-163445490D01*
X46100000Y-162000000D01*
X72150000Y-162000000D01*
X72150000Y-168559004D01*
G36*
X71450000Y-171650000D02*
X71470000Y-171650000D01*
X71470000Y-171950000D01*
X71450000Y-171950000D01*
X71450000Y-171970000D01*
X71150000Y-171970000D01*
X71150000Y-171950000D01*
X71130000Y-171950000D01*
X71130000Y-171650000D01*
X71150000Y-171650000D01*
X71150000Y-171630000D01*
X71450000Y-171630000D01*
X71450000Y-171650000D01*
X71450000Y-171650000D01*
G37*
X71450000Y-171650000D02*
X71470000Y-171650000D01*
X71470000Y-171950000D01*
X71450000Y-171950000D01*
X71450000Y-171970000D01*
X71150000Y-171970000D01*
X71150000Y-171950000D01*
X71130000Y-171950000D01*
X71130000Y-171650000D01*
X71150000Y-171650000D01*
X71150000Y-171630000D01*
X71450000Y-171630000D01*
X71450000Y-171650000D01*
G36*
X70674064Y-166987237D02*
X70725000Y-167110511D01*
X70725000Y-168541184D01*
X70538000Y-168541184D01*
X70433123Y-168560918D01*
X70370043Y-168518769D01*
X70356861Y-168516147D01*
X70150000Y-168475000D01*
X69250000Y-168475000D01*
X69029957Y-168518769D01*
X68843414Y-168643413D01*
X68493414Y-168993414D01*
X68375000Y-169111828D01*
X68375000Y-168957788D01*
X68419919Y-168928883D01*
X68522668Y-168778505D01*
X68558816Y-168600000D01*
X68558816Y-168200000D01*
X68527438Y-168033240D01*
X68478777Y-167957619D01*
X68481491Y-167954905D01*
X68550000Y-167789511D01*
X68550000Y-167712500D01*
X68437500Y-167600000D01*
X67950000Y-167600000D01*
X67950000Y-167670000D01*
X67650000Y-167670000D01*
X67650000Y-167600000D01*
X67630000Y-167600000D01*
X67630000Y-167400000D01*
X67650000Y-167400000D01*
X67650000Y-166962500D01*
X67950000Y-166962500D01*
X67950000Y-167400000D01*
X68437500Y-167400000D01*
X68550000Y-167287500D01*
X68550000Y-167210489D01*
X68481491Y-167045095D01*
X68354904Y-166918508D01*
X68189510Y-166850000D01*
X68062500Y-166850000D01*
X67950000Y-166962500D01*
X67650000Y-166962500D01*
X67537500Y-166850000D01*
X67410490Y-166850000D01*
X67250000Y-166916477D01*
X67250000Y-166800003D01*
X67367714Y-166751364D01*
X67550722Y-166568676D01*
X67649887Y-166329860D01*
X67649979Y-166223816D01*
X69410000Y-166223816D01*
X69576760Y-166192438D01*
X69729919Y-166093883D01*
X69750536Y-166063709D01*
X70674064Y-166987237D01*
X70674064Y-166987237D01*
G37*
X70674064Y-166987237D02*
X70725000Y-167110511D01*
X70725000Y-168541184D01*
X70538000Y-168541184D01*
X70433123Y-168560918D01*
X70370043Y-168518769D01*
X70356861Y-168516147D01*
X70150000Y-168475000D01*
X69250000Y-168475000D01*
X69029957Y-168518769D01*
X68843414Y-168643413D01*
X68493414Y-168993414D01*
X68375000Y-169111828D01*
X68375000Y-168957788D01*
X68419919Y-168928883D01*
X68522668Y-168778505D01*
X68558816Y-168600000D01*
X68558816Y-168200000D01*
X68527438Y-168033240D01*
X68478777Y-167957619D01*
X68481491Y-167954905D01*
X68550000Y-167789511D01*
X68550000Y-167712500D01*
X68437500Y-167600000D01*
X67950000Y-167600000D01*
X67950000Y-167670000D01*
X67650000Y-167670000D01*
X67650000Y-167600000D01*
X67630000Y-167600000D01*
X67630000Y-167400000D01*
X67650000Y-167400000D01*
X67650000Y-166962500D01*
X67950000Y-166962500D01*
X67950000Y-167400000D01*
X68437500Y-167400000D01*
X68550000Y-167287500D01*
X68550000Y-167210489D01*
X68481491Y-167045095D01*
X68354904Y-166918508D01*
X68189510Y-166850000D01*
X68062500Y-166850000D01*
X67950000Y-166962500D01*
X67650000Y-166962500D01*
X67537500Y-166850000D01*
X67410490Y-166850000D01*
X67250000Y-166916477D01*
X67250000Y-166800003D01*
X67367714Y-166751364D01*
X67550722Y-166568676D01*
X67649887Y-166329860D01*
X67649979Y-166223816D01*
X69410000Y-166223816D01*
X69576760Y-166192438D01*
X69729919Y-166093883D01*
X69750536Y-166063709D01*
X70674064Y-166987237D01*
G36*
X40250113Y-163920140D02*
X40249888Y-164178726D01*
X40348636Y-164417714D01*
X40531324Y-164600722D01*
X40770140Y-164699887D01*
X41028726Y-164700112D01*
X41150006Y-164650000D01*
X41351472Y-164650000D01*
X41866736Y-165165264D01*
X41901094Y-165216684D01*
X41837356Y-165312074D01*
X41791684Y-165541684D01*
X41791684Y-166026896D01*
X41837356Y-166256506D01*
X41967420Y-166451160D01*
X42162074Y-166581224D01*
X42391684Y-166626896D01*
X42467376Y-166611840D01*
X42570395Y-166664874D01*
X42752000Y-166678668D01*
X42924664Y-166620720D01*
X43225000Y-166447321D01*
X43225000Y-166657787D01*
X43015798Y-166778570D01*
X42887068Y-166889124D01*
X42803706Y-167051055D01*
X42789912Y-167232660D01*
X42847860Y-167405324D01*
X43049382Y-167754370D01*
X43049382Y-171237445D01*
X42293414Y-171993414D01*
X42168769Y-172179957D01*
X42125000Y-172400000D01*
X42125000Y-172539682D01*
X41890420Y-172945986D01*
X41907740Y-172955986D01*
X41757740Y-173215794D01*
X41740420Y-173205794D01*
X41446645Y-173714627D01*
X41487823Y-173868305D01*
X41529426Y-173892324D01*
X41684462Y-173981835D01*
X41861952Y-174005202D01*
X42034873Y-173958868D01*
X42125000Y-173889711D01*
X42125000Y-173994231D01*
X42114063Y-174538856D01*
X41997860Y-174740124D01*
X41941654Y-174900231D01*
X41950426Y-175082148D01*
X42029282Y-175246320D01*
X42165798Y-175366878D01*
X42858704Y-175766928D01*
X43018811Y-175823134D01*
X43171034Y-175815794D01*
X43011828Y-175975000D01*
X35608816Y-175975000D01*
X35608816Y-175450000D01*
X35577438Y-175283240D01*
X35556986Y-175251456D01*
X35572668Y-175228505D01*
X35608816Y-175050000D01*
X35608816Y-174800000D01*
X37855705Y-174800000D01*
X37939431Y-174925305D01*
X38409845Y-175239625D01*
X38964736Y-175350000D01*
X39735264Y-175350000D01*
X40290155Y-175239625D01*
X40760569Y-174925305D01*
X41074889Y-174454891D01*
X41185264Y-173900000D01*
X41122009Y-173581998D01*
X41186837Y-173564627D01*
X41480612Y-173055794D01*
X40971779Y-172762019D01*
X40818101Y-172803197D01*
X40769288Y-172887744D01*
X40760569Y-172874695D01*
X40290155Y-172560375D01*
X39735264Y-172450000D01*
X38964736Y-172450000D01*
X38409845Y-172560375D01*
X37939431Y-172874695D01*
X37788887Y-173100000D01*
X35608816Y-173100000D01*
X35608816Y-172850000D01*
X35577438Y-172683240D01*
X35490708Y-172548457D01*
X35572668Y-172428505D01*
X35588862Y-172348533D01*
X41080601Y-172348533D01*
X41121779Y-172502211D01*
X41630612Y-172795986D01*
X41924387Y-172287153D01*
X41883209Y-172133475D01*
X41841606Y-172109456D01*
X41686570Y-172019945D01*
X41509080Y-171996578D01*
X41336159Y-172042912D01*
X41194132Y-172151893D01*
X41080601Y-172348533D01*
X35588862Y-172348533D01*
X35608816Y-172250000D01*
X35608816Y-171472554D01*
X36765685Y-170315686D01*
X36939104Y-170056147D01*
X36940327Y-170050000D01*
X37000000Y-169750000D01*
X37000000Y-168031370D01*
X37581371Y-167450000D01*
X38051220Y-167450000D01*
X38409845Y-167689625D01*
X38964736Y-167800000D01*
X39735264Y-167800000D01*
X40290155Y-167689625D01*
X40602075Y-167481207D01*
X40604571Y-167500163D01*
X40644364Y-167569086D01*
X40604285Y-167629067D01*
X40560516Y-167849110D01*
X40560516Y-167985516D01*
X40604285Y-168205559D01*
X40728930Y-168392102D01*
X40915473Y-168516747D01*
X41135516Y-168560516D01*
X41355559Y-168516747D01*
X41385112Y-168497000D01*
X41409080Y-168503422D01*
X41586570Y-168480055D01*
X41741606Y-168390544D01*
X41783209Y-168366525D01*
X41824387Y-168212847D01*
X41716727Y-168026375D01*
X41731231Y-168004669D01*
X41774999Y-167784626D01*
X41731231Y-167564583D01*
X41724169Y-167554014D01*
X41790420Y-167554014D01*
X42084195Y-168062847D01*
X42237873Y-168104025D01*
X42279476Y-168080005D01*
X42434512Y-167990495D01*
X42543494Y-167848468D01*
X42589828Y-167675547D01*
X42566461Y-167498057D01*
X42452931Y-167301417D01*
X42299253Y-167260239D01*
X41790420Y-167554014D01*
X41724169Y-167554014D01*
X41606586Y-167378040D01*
X41420043Y-167253395D01*
X41251039Y-167219779D01*
X41086837Y-166935373D01*
X41059429Y-166928029D01*
X41074889Y-166904891D01*
X41098662Y-166785373D01*
X41346645Y-166785373D01*
X41640420Y-167294206D01*
X42149253Y-167000431D01*
X42190431Y-166846753D01*
X42076900Y-166650113D01*
X41934873Y-166541132D01*
X41761952Y-166494798D01*
X41584462Y-166518165D01*
X41429426Y-166607676D01*
X41387823Y-166631695D01*
X41346645Y-166785373D01*
X41098662Y-166785373D01*
X41185264Y-166350000D01*
X41074889Y-165795109D01*
X40760569Y-165324695D01*
X40290155Y-165010375D01*
X39735264Y-164900000D01*
X38964736Y-164900000D01*
X38409845Y-165010375D01*
X37939431Y-165324695D01*
X37625111Y-165795109D01*
X37614192Y-165850000D01*
X37250000Y-165850000D01*
X36943853Y-165910896D01*
X36684314Y-166084315D01*
X35634315Y-167134315D01*
X35556523Y-167250738D01*
X35540416Y-167225707D01*
X35572668Y-167178505D01*
X35608816Y-167000000D01*
X35608816Y-166388505D01*
X35656586Y-166356586D01*
X38188173Y-163825000D01*
X40289619Y-163825000D01*
X40250113Y-163920140D01*
X40250113Y-163920140D01*
G37*
X40250113Y-163920140D02*
X40249888Y-164178726D01*
X40348636Y-164417714D01*
X40531324Y-164600722D01*
X40770140Y-164699887D01*
X41028726Y-164700112D01*
X41150006Y-164650000D01*
X41351472Y-164650000D01*
X41866736Y-165165264D01*
X41901094Y-165216684D01*
X41837356Y-165312074D01*
X41791684Y-165541684D01*
X41791684Y-166026896D01*
X41837356Y-166256506D01*
X41967420Y-166451160D01*
X42162074Y-166581224D01*
X42391684Y-166626896D01*
X42467376Y-166611840D01*
X42570395Y-166664874D01*
X42752000Y-166678668D01*
X42924664Y-166620720D01*
X43225000Y-166447321D01*
X43225000Y-166657787D01*
X43015798Y-166778570D01*
X42887068Y-166889124D01*
X42803706Y-167051055D01*
X42789912Y-167232660D01*
X42847860Y-167405324D01*
X43049382Y-167754370D01*
X43049382Y-171237445D01*
X42293414Y-171993414D01*
X42168769Y-172179957D01*
X42125000Y-172400000D01*
X42125000Y-172539682D01*
X41890420Y-172945986D01*
X41907740Y-172955986D01*
X41757740Y-173215794D01*
X41740420Y-173205794D01*
X41446645Y-173714627D01*
X41487823Y-173868305D01*
X41529426Y-173892324D01*
X41684462Y-173981835D01*
X41861952Y-174005202D01*
X42034873Y-173958868D01*
X42125000Y-173889711D01*
X42125000Y-173994231D01*
X42114063Y-174538856D01*
X41997860Y-174740124D01*
X41941654Y-174900231D01*
X41950426Y-175082148D01*
X42029282Y-175246320D01*
X42165798Y-175366878D01*
X42858704Y-175766928D01*
X43018811Y-175823134D01*
X43171034Y-175815794D01*
X43011828Y-175975000D01*
X35608816Y-175975000D01*
X35608816Y-175450000D01*
X35577438Y-175283240D01*
X35556986Y-175251456D01*
X35572668Y-175228505D01*
X35608816Y-175050000D01*
X35608816Y-174800000D01*
X37855705Y-174800000D01*
X37939431Y-174925305D01*
X38409845Y-175239625D01*
X38964736Y-175350000D01*
X39735264Y-175350000D01*
X40290155Y-175239625D01*
X40760569Y-174925305D01*
X41074889Y-174454891D01*
X41185264Y-173900000D01*
X41122009Y-173581998D01*
X41186837Y-173564627D01*
X41480612Y-173055794D01*
X40971779Y-172762019D01*
X40818101Y-172803197D01*
X40769288Y-172887744D01*
X40760569Y-172874695D01*
X40290155Y-172560375D01*
X39735264Y-172450000D01*
X38964736Y-172450000D01*
X38409845Y-172560375D01*
X37939431Y-172874695D01*
X37788887Y-173100000D01*
X35608816Y-173100000D01*
X35608816Y-172850000D01*
X35577438Y-172683240D01*
X35490708Y-172548457D01*
X35572668Y-172428505D01*
X35588862Y-172348533D01*
X41080601Y-172348533D01*
X41121779Y-172502211D01*
X41630612Y-172795986D01*
X41924387Y-172287153D01*
X41883209Y-172133475D01*
X41841606Y-172109456D01*
X41686570Y-172019945D01*
X41509080Y-171996578D01*
X41336159Y-172042912D01*
X41194132Y-172151893D01*
X41080601Y-172348533D01*
X35588862Y-172348533D01*
X35608816Y-172250000D01*
X35608816Y-171472554D01*
X36765685Y-170315686D01*
X36939104Y-170056147D01*
X36940327Y-170050000D01*
X37000000Y-169750000D01*
X37000000Y-168031370D01*
X37581371Y-167450000D01*
X38051220Y-167450000D01*
X38409845Y-167689625D01*
X38964736Y-167800000D01*
X39735264Y-167800000D01*
X40290155Y-167689625D01*
X40602075Y-167481207D01*
X40604571Y-167500163D01*
X40644364Y-167569086D01*
X40604285Y-167629067D01*
X40560516Y-167849110D01*
X40560516Y-167985516D01*
X40604285Y-168205559D01*
X40728930Y-168392102D01*
X40915473Y-168516747D01*
X41135516Y-168560516D01*
X41355559Y-168516747D01*
X41385112Y-168497000D01*
X41409080Y-168503422D01*
X41586570Y-168480055D01*
X41741606Y-168390544D01*
X41783209Y-168366525D01*
X41824387Y-168212847D01*
X41716727Y-168026375D01*
X41731231Y-168004669D01*
X41774999Y-167784626D01*
X41731231Y-167564583D01*
X41724169Y-167554014D01*
X41790420Y-167554014D01*
X42084195Y-168062847D01*
X42237873Y-168104025D01*
X42279476Y-168080005D01*
X42434512Y-167990495D01*
X42543494Y-167848468D01*
X42589828Y-167675547D01*
X42566461Y-167498057D01*
X42452931Y-167301417D01*
X42299253Y-167260239D01*
X41790420Y-167554014D01*
X41724169Y-167554014D01*
X41606586Y-167378040D01*
X41420043Y-167253395D01*
X41251039Y-167219779D01*
X41086837Y-166935373D01*
X41059429Y-166928029D01*
X41074889Y-166904891D01*
X41098662Y-166785373D01*
X41346645Y-166785373D01*
X41640420Y-167294206D01*
X42149253Y-167000431D01*
X42190431Y-166846753D01*
X42076900Y-166650113D01*
X41934873Y-166541132D01*
X41761952Y-166494798D01*
X41584462Y-166518165D01*
X41429426Y-166607676D01*
X41387823Y-166631695D01*
X41346645Y-166785373D01*
X41098662Y-166785373D01*
X41185264Y-166350000D01*
X41074889Y-165795109D01*
X40760569Y-165324695D01*
X40290155Y-165010375D01*
X39735264Y-164900000D01*
X38964736Y-164900000D01*
X38409845Y-165010375D01*
X37939431Y-165324695D01*
X37625111Y-165795109D01*
X37614192Y-165850000D01*
X37250000Y-165850000D01*
X36943853Y-165910896D01*
X36684314Y-166084315D01*
X35634315Y-167134315D01*
X35556523Y-167250738D01*
X35540416Y-167225707D01*
X35572668Y-167178505D01*
X35608816Y-167000000D01*
X35608816Y-166388505D01*
X35656586Y-166356586D01*
X38188173Y-163825000D01*
X40289619Y-163825000D01*
X40250113Y-163920140D01*
G36*
X44250000Y-163608386D02*
X44206586Y-163543413D01*
X43506586Y-162843414D01*
X43320043Y-162718769D01*
X43100000Y-162675000D01*
X37950000Y-162675000D01*
X37729957Y-162718769D01*
X37543414Y-162843413D01*
X35605334Y-164781494D01*
X35577438Y-164633240D01*
X35554944Y-164598284D01*
X35600000Y-164489511D01*
X35600000Y-163562500D01*
X35487500Y-163450000D01*
X34600000Y-163450000D01*
X34600000Y-163470000D01*
X34300000Y-163470000D01*
X34300000Y-163450000D01*
X34280000Y-163450000D01*
X34280000Y-163150000D01*
X34300000Y-163150000D01*
X34300000Y-163130000D01*
X34600000Y-163130000D01*
X34600000Y-163150000D01*
X35487500Y-163150000D01*
X35600000Y-163037500D01*
X35600000Y-162250000D01*
X44250000Y-162250000D01*
X44250000Y-163608386D01*
X44250000Y-163608386D01*
G37*
X44250000Y-163608386D02*
X44206586Y-163543413D01*
X43506586Y-162843414D01*
X43320043Y-162718769D01*
X43100000Y-162675000D01*
X37950000Y-162675000D01*
X37729957Y-162718769D01*
X37543414Y-162843413D01*
X35605334Y-164781494D01*
X35577438Y-164633240D01*
X35554944Y-164598284D01*
X35600000Y-164489511D01*
X35600000Y-163562500D01*
X35487500Y-163450000D01*
X34600000Y-163450000D01*
X34600000Y-163470000D01*
X34300000Y-163470000D01*
X34300000Y-163450000D01*
X34280000Y-163450000D01*
X34280000Y-163150000D01*
X34300000Y-163150000D01*
X34300000Y-163130000D01*
X34600000Y-163130000D01*
X34600000Y-163150000D01*
X35487500Y-163150000D01*
X35600000Y-163037500D01*
X35600000Y-162250000D01*
X44250000Y-162250000D01*
X44250000Y-163608386D01*
M02*
